<svg xmlns="http://www.w3.org/2000/svg" version="1.1" xmlns:xlink="http://www.w3.org/1999/xlink" width="1000" height="1000"><style>
    #light-icon {
      display: inline;
    }
    #dark-icon {
      display: none;
    }

    @media (prefers-color-scheme: dark) {
      #light-icon {
        display: none;
      }
      #dark-icon {
        display: inline;
      }
    }
  </style><g id="light-icon"><svg xmlns="http://www.w3.org/2000/svg" version="1.1" xmlns:xlink="http://www.w3.org/1999/xlink" width="1000" height="1000"><g><g transform="matrix(18.181818181818183,0,0,18.181818181818183,54.545454545454504,-5.684341886080802e-14)"><svg xmlns="http://www.w3.org/2000/svg" version="1.1" xmlns:xlink="http://www.w3.org/1999/xlink" width="49" height="55"><svg width="49" height="55" viewBox="0 0 49 55" fill="none" xmlns="http://www.w3.org/2000/svg">
<path fill-rule="evenodd" clip-rule="evenodd" d="M46.5134 6.66667H35.4023V2.22222C35.4023 0.996169 34.4061 0 33.1801 0H15.4789C14.2529 0 13.2567 0.996169 13.2567 2.22222V6.66667H2.22222C0.996169 6.66667 0 7.66284 0 8.88889V19.0805C0 20 0.536398 20.7663 1.37931 21.1494L23.5249 30.0383C23.7548 30.1149 24.0613 30.1916 24.3678 30.1916C24.6743 30.1916 24.9042 30.1149 25.2107 30.0383L47.3563 21.1494C48.1992 20.8429 48.7356 20 48.7356 19.0805V8.88889C48.7356 7.66284 47.7395 6.66667 46.5134 6.66667ZM17.7012 4.0613H30.9579V6.66667H17.7012V4.0613Z" fill="url(#paint0_linear_4_42)"></path>
<path d="M24.3678 41.3027C23.4483 41.3027 22.5287 41.1495 21.6858 40.7663L3.06513 33.3334C2.37548 33.0269 1.6092 33.1035 0.996169 33.5633C0.383142 34.023 0 34.6361 0 35.4023V52.4905C0 53.8698 1.0728 54.9426 2.45211 54.9426H46.2835C47.6628 54.9426 48.7356 53.8698 48.7356 52.4905V35.4023C48.7356 34.6361 48.3525 33.9464 47.7395 33.5633C47.1264 33.1035 46.3602 33.0269 45.6705 33.3334L27.1264 40.7663C26.2069 41.1495 25.2874 41.3027 24.3678 41.3027Z" fill="#243874"></path>
<path fill-rule="evenodd" clip-rule="evenodd" d="M0 22.299V27.5097C0 28.4292 0.536398 29.1955 1.37931 29.5787L23.5249 38.4676C23.7548 38.5442 24.0613 38.6208 24.3678 38.6208C24.6743 38.6208 24.9042 38.5442 25.2107 38.4676L47.3563 29.5787C48.1992 29.2722 48.7356 28.4292 48.7356 27.5097V22.299C48.7356 23.2185 48.1992 23.9848 47.3563 24.3679L25.1341 33.1802C24.9042 33.2568 24.5977 33.3335 24.2912 33.3335C23.9847 33.3335 23.7548 33.2568 23.4483 33.1802L1.37931 24.3679C0.536398 23.9848 0 23.2185 0 22.299Z" fill="#00A550"></path>
<defs>
<linearGradient id="paint0_linear_4_42" x1="21.9324" y1="6.4336" x2="32.327" y2="38.7106" gradientUnits="userSpaceOnUse">
<stop stop-color="#009FFF"></stop>
<stop offset="0.6118" stop-color="#3A59A8"></stop>
<stop offset="0.9294" stop-color="#009FFF"></stop>
<stop offset="0.9725" stop-color="#1C7BD3"></stop>
<stop offset="1" stop-color="#3856A6"></stop>
</linearGradient>
</defs>
</svg></svg></g></g></svg></g><g id="dark-icon"><svg xmlns="http://www.w3.org/2000/svg" version="1.1" xmlns:xlink="http://www.w3.org/1999/xlink" width="1000" height="1000"><g clip-path="url(#SvgjsClipPath1132)"><rect width="1000" height="1000" fill="#ffffff"></rect><g transform="matrix(12.727272727272727,0,0,12.727272727272727,188.1818181818182,150)"><svg xmlns="http://www.w3.org/2000/svg" version="1.1" xmlns:xlink="http://www.w3.org/1999/xlink" width="49" height="55"><svg width="49" height="55" viewBox="0 0 49 55" fill="none" xmlns="http://www.w3.org/2000/svg">
<path fill-rule="evenodd" clip-rule="evenodd" d="M46.5134 6.66667H35.4023V2.22222C35.4023 0.996169 34.4061 0 33.1801 0H15.4789C14.2529 0 13.2567 0.996169 13.2567 2.22222V6.66667H2.22222C0.996169 6.66667 0 7.66284 0 8.88889V19.0805C0 20 0.536398 20.7663 1.37931 21.1494L23.5249 30.0383C23.7548 30.1149 24.0613 30.1916 24.3678 30.1916C24.6743 30.1916 24.9042 30.1149 25.2107 30.0383L47.3563 21.1494C48.1992 20.8429 48.7356 20 48.7356 19.0805V8.88889C48.7356 7.66284 47.7395 6.66667 46.5134 6.66667ZM17.7012 4.0613H30.9579V6.66667H17.7012V4.0613Z" fill="url(#paint0_linear_4_42)"></path>
<path d="M24.3678 41.3027C23.4483 41.3027 22.5287 41.1495 21.6858 40.7663L3.06513 33.3334C2.37548 33.0269 1.6092 33.1035 0.996169 33.5633C0.383142 34.023 0 34.6361 0 35.4023V52.4905C0 53.8698 1.0728 54.9426 2.45211 54.9426H46.2835C47.6628 54.9426 48.7356 53.8698 48.7356 52.4905V35.4023C48.7356 34.6361 48.3525 33.9464 47.7395 33.5633C47.1264 33.1035 46.3602 33.0269 45.6705 33.3334L27.1264 40.7663C26.2069 41.1495 25.2874 41.3027 24.3678 41.3027Z" fill="#243874"></path>
<path fill-rule="evenodd" clip-rule="evenodd" d="M0 22.299V27.5097C0 28.4292 0.536398 29.1955 1.37931 29.5787L23.5249 38.4676C23.7548 38.5442 24.0613 38.6208 24.3678 38.6208C24.6743 38.6208 24.9042 38.5442 25.2107 38.4676L47.3563 29.5787C48.1992 29.2722 48.7356 28.4292 48.7356 27.5097V22.299C48.7356 23.2185 48.1992 23.9848 47.3563 24.3679L25.1341 33.1802C24.9042 33.2568 24.5977 33.3335 24.2912 33.3335C23.9847 33.3335 23.7548 33.2568 23.4483 33.1802L1.37931 24.3679C0.536398 23.9848 0 23.2185 0 22.299Z" fill="#00A550"></path>
<defs>
<linearGradient id="paint0_linear_4_42" x1="21.9324" y1="6.4336" x2="32.327" y2="38.7106" gradientUnits="userSpaceOnUse">
<stop stop-color="#009FFF"></stop>
<stop offset="0.6118" stop-color="#3A59A8"></stop>
<stop offset="0.9294" stop-color="#009FFF"></stop>
<stop offset="0.9725" stop-color="#1C7BD3"></stop>
<stop offset="1" stop-color="#3856A6"></stop>
</linearGradient>
<clipPath id="SvgjsClipPath1132"><rect width="1000" height="1000" x="0" y="0" rx="350" ry="350"></rect></clipPath></defs>
</svg></svg></g></g></svg></g></svg>