<svg width="130" height="130" viewBox="0 0 130 130" fill="none" xmlns="http://www.w3.org/2000/svg">
<circle cx="65" cy="65" r="65" fill="white"/>
<g clip-path="url(#clip0_2_4)">
<path d="M70.5676 64.8672C71.7427 64.8672 72.7709 65.8954 72.7709 67.0704C72.7709 67.8048 72.3302 68.5393 71.7427 68.833V73.974L68.0705 77.6461V84.6967C68.0705 85.2842 67.483 85.8717 66.8955 85.8717C66.308 85.8717 65.7204 85.2842 65.7204 84.6967V77.0586C65.7204 76.9117 65.7204 76.9117 65.7204 76.7648C65.7204 76.7648 65.7204 76.7648 65.8673 76.6179L69.0987 73.3865V69.1268C68.5112 68.6862 68.0705 68.0986 68.0705 67.3643C68.3644 65.7485 69.3926 64.8672 70.5676 64.8672ZM58.8166 2C53.5288 3.90955 48.3877 6.70032 44.2749 10.3726C39.7214 14.3385 36.0493 19.3326 33.6991 24.9143C32.2302 28.4396 31.202 32.1117 30.7613 35.9308C29.7331 46.3597 33.8459 55.4667 41.7778 62.2234C42.9529 63.2516 44.128 64.2798 45.1562 65.308C45.8906 66.1893 46.6251 66.9237 47.0658 68.0989C47.0658 68.0989 47.0658 68.2457 47.2126 68.2457C46.772 68.8333 46.3313 69.4208 45.8906 69.8615C45.8906 69.4208 45.7438 68.9801 45.5968 68.6864C45.303 67.8051 44.7154 67.2175 44.1279 66.4832C43.0997 65.455 41.9247 64.4268 40.7495 63.5454C32.3769 56.348 28.1173 46.8004 29.1455 35.7839C29.5862 31.818 30.6144 27.999 32.0832 24.3268C35.9023 15.6605 41.1902 9.63818 49.4158 5.08472C38.3993 8.60999 21.2136 19.4795 18.2759 34.7557C18.129 34.4619 17.6883 33.7275 17.3945 33.14C13.1349 42.6876 11.0785 57.8169 15.9256 65.6018C15.1913 65.308 14.6036 65.0143 14.3099 64.5736C15.485 70.3021 17.5414 80.2904 25.9139 80.1436C23.8575 80.5842 21.6543 80.5842 20.1854 80.2904C22.2418 83.9625 25.6202 89.1035 30.6144 88.8098C29.88 89.3973 28.2641 89.838 27.3829 89.9849C28.9986 91.7474 31.9364 95.2727 36.6367 94.6852C36.0492 95.2727 35.021 95.5665 33.699 95.7134C35.9022 97.476 38.2524 98.9448 40.7495 100.267C41.0433 101.001 41.4839 101.883 41.7777 102.617C37.8118 100.708 33.9928 98.2104 30.6144 95.2727C31.055 95.2727 31.3487 95.2727 31.6426 95.1259C27.9704 93.8038 26.2077 91.1599 24.592 89.2504C25.0327 89.2504 25.3264 89.2504 25.6202 89.1035C21.8011 87.194 19.1572 82.053 17.3946 78.8215C17.8353 78.9684 18.5697 78.9684 18.8635 78.8215C14.31 74.5619 12.8412 67.5114 11.9598 61.7827C12.2536 61.9296 12.4005 62.0765 12.5473 62.0765C10.6378 53.704 10.9316 42.5406 17.1008 30.2023C17.2477 30.4961 17.3946 30.6429 17.6883 30.7898C23.7107 14.4855 41.0432 3.46899 58.8164 2.00012L58.8166 2ZM81.7309 118.627C80.8496 119.215 79.9684 119.802 79.6745 120.978C78.3525 121.712 77.3243 122.153 75.4149 122.447C77.3244 122.74 79.087 122.593 80.9966 122.153C80.8497 120.831 81.1434 119.509 81.7309 118.627ZM85.9906 113.34C85.9906 113.927 85.9906 114.662 85.9906 115.102C85.4031 115.543 84.228 115.984 83.1997 116.13C85.1092 116.424 86.8718 116.277 88.4875 115.543C87.4593 115.102 86.725 114.515 85.9905 113.34H85.9906ZM82.1715 117.599C85.1092 118.481 88.4875 118.481 91.7191 115.984C88.9282 114.368 86.5781 112.164 85.1092 109.374L86.4313 108.199C88.047 111.577 90.9847 114.074 94.6568 115.543C92.3066 118.481 88.4877 120.096 85.2561 119.803C84.081 121.125 83.6404 123.622 84.8154 125.237C78.7931 125.972 75.2678 127 71.155 123.769L71.4488 121.859C72.9177 122.887 73.9459 123.769 75.7085 124.062C76.8835 124.209 78.2056 124.209 79.3806 124.062C80.4088 123.915 81.2901 123.768 82.3183 123.768C82.1715 122.153 82.4652 120.39 83.4934 119.215C83.0527 118.627 82.4653 118.334 82.1715 117.599ZM49.269 118.627C50.1504 119.215 51.0316 119.802 51.3254 120.978C52.6474 121.712 53.6756 122.153 55.5851 122.447C53.6755 122.74 51.9129 122.593 50.0034 122.153C50.0034 120.831 49.7096 119.509 49.269 118.627ZM44.8625 113.34C44.8625 113.927 44.8625 114.662 44.8625 115.102C45.4501 115.543 46.6251 115.984 47.6534 116.13C45.7439 116.424 43.9813 116.277 42.3656 115.543C43.5406 115.102 44.1282 114.515 44.8627 113.34H44.8625ZM48.6815 117.599C45.7438 118.481 42.3655 118.481 39.1339 115.984C41.9248 114.368 44.2749 112.164 45.7438 109.374L44.4217 108.199C42.806 111.577 39.8683 114.074 36.1962 115.543C38.5464 118.481 42.3653 120.096 45.5969 119.803C46.772 121.125 47.2126 123.622 46.0376 125.237C52.0599 125.972 55.5852 127 59.698 123.769L59.4042 121.859C57.9353 122.887 56.9071 123.769 55.1445 124.062C53.9695 124.209 52.6474 124.209 51.4724 124.062C50.4442 123.915 49.5629 123.768 48.5347 123.768C48.6815 122.153 48.3878 120.39 47.3596 119.215C47.9471 118.627 48.3878 118.334 48.6816 117.599H48.6815ZM83.6404 68.2456C84.081 68.8331 84.5217 69.4207 84.9624 69.8613C84.9624 69.4207 85.1092 68.98 85.2562 68.6863C85.55 67.8049 86.1376 67.2174 86.7251 66.483C87.7533 65.4548 88.9283 64.4266 90.1035 63.5453C98.4761 56.3479 102.736 46.8003 101.708 35.7838C101.267 31.8179 100.239 27.9989 98.7698 24.3267C94.9507 15.5135 89.6628 9.49121 81.4372 4.93774C92.4537 8.46301 109.786 19.3325 112.724 34.6088C112.871 34.3149 113.312 33.5806 113.605 32.993C117.865 42.5406 119.775 57.8168 115.074 65.4548C115.809 65.161 116.396 64.8673 116.69 64.4266C115.515 70.1552 113.458 80.1434 105.086 79.9966C107.142 80.4373 109.346 80.4373 110.814 80.1434C108.758 83.8156 105.38 88.9565 100.385 88.6628C101.12 89.2504 102.736 89.691 103.617 89.8379C102.001 91.6005 99.0635 95.1257 94.3631 94.5382C94.9507 95.1257 95.9789 95.4196 97.3009 95.5664C95.0976 97.329 92.7474 98.7979 90.2504 100.12C89.9565 100.854 89.516 101.736 89.2222 102.47C93.1881 100.561 97.0071 98.0635 100.385 95.1257C99.9448 95.1257 99.6511 95.1257 99.3573 94.9789C103.029 93.6569 104.792 91.0129 106.408 89.1034C105.967 89.1034 105.673 89.1034 105.38 88.9565C109.199 87.047 111.843 81.906 113.605 78.6746C113.165 78.8214 112.43 78.8214 112.136 78.6746C116.69 74.4149 118.159 67.3644 119.04 61.6357C118.746 61.7826 118.599 61.9296 118.452 61.9296C120.362 53.557 120.068 42.3937 113.899 30.0553C113.752 30.3491 113.605 30.496 113.312 30.6428C107.289 14.4854 89.9566 3.46887 72.0365 2C77.3243 3.90955 82.4654 6.70032 86.5782 10.3726C91.1317 14.3385 94.8038 19.3326 97.154 24.9143C98.6229 28.4396 99.6511 32.1117 100.092 35.9308C101.12 46.3597 97.0072 55.4667 89.0753 62.2234C87.9003 63.2516 86.7251 64.2798 85.6969 65.308C84.9625 66.1893 84.228 66.9237 83.7873 68.0989C83.7873 68.0989 83.7873 68.0989 83.6405 68.2457L83.6404 68.2456ZM63.5171 56.0541C61.7545 55.4666 61.1669 53.7039 61.9014 51.7944C61.9014 53.1165 62.342 54.1447 63.3702 54.5853C64.3984 53.851 64.6922 52.8228 64.3984 51.5007C65.4266 53.4103 65.1328 55.3198 63.5171 56.0542V56.0541ZM76.2961 47.8285C75.4148 47.3878 74.5336 47.241 73.6522 47.241C73.2115 47.241 72.7709 46.9471 72.9178 46.0659C72.0365 48.1223 71.7428 49.2974 69.0987 48.7098C67.6299 48.416 66.8955 49.5912 67.1892 50.9131C67.336 51.6475 67.6299 52.8226 66.8954 53.557C66.6016 52.382 65.8672 51.7944 65.1328 51.3538C66.3078 53.2633 65.8672 54.4384 65.5735 55.0259C68.6581 54.4384 68.6581 56.9354 68.2174 58.1105C68.9518 58.1105 69.6863 58.2573 70.2738 58.2573C69.5394 55.7603 68.9518 53.2632 68.6581 50.6193C68.6581 50.1786 68.6581 50.0317 68.9519 50.1786C70.7145 50.4724 72.3303 50.1786 73.3585 48.7097C75.1211 48.5629 76.4431 49.1504 77.7651 50.0317C78.0589 47.2408 78.2058 44.5969 74.8274 43.5687C74.3867 41.953 73.0648 41.3655 71.449 41.5123C69.2457 38.1339 61.4607 41.6592 58.3761 39.4559C57.3479 38.7216 57.0541 37.3995 56.9072 36.2245C55.879 37.2527 54.9977 37.9871 54.557 39.4559C53.8226 41.5123 54.2632 44.0094 55.5852 45.772C56.4665 46.947 57.7884 47.8284 59.1105 48.1222C58.9636 48.269 58.8166 48.416 58.8166 48.5629C57.0541 51.3538 57.3478 55.4666 57.3478 58.698C57.7884 58.5511 58.376 58.5511 58.8166 58.4042C58.376 56.9353 58.8166 55.1727 61.0199 55.0258C60.7261 54.4382 60.2855 53.2632 61.4606 51.3536C60.7262 51.6475 59.9917 52.3818 59.698 53.5569C59.1105 52.6755 59.1105 51.7943 59.4042 51.0598C59.551 50.6191 59.698 50.3254 59.8448 50.0316V49.8848C61.3137 46.947 66.6015 48.8566 68.0704 44.3031C67.6297 44.8906 67.0422 45.3313 66.4547 45.6251C65.5733 46.0658 64.839 44.3031 63.6638 44.3031C64.1045 44.5969 64.2513 45.1844 64.2513 45.772C64.1045 46.3595 63.8107 46.5063 63.37 46.0658C62.9293 45.6252 62.6356 44.7438 61.7543 44.5969C62.1949 45.0376 62.1949 45.6251 62.0481 46.0658C61.9012 46.6533 61.4606 46.9471 61.0199 46.3596C60.7261 46.0658 60.5792 45.4783 60.1385 45.1846C60.2854 45.9189 59.551 46.6534 58.6697 46.2128C57.3476 45.6252 56.4664 44.7439 55.8788 43.4219C55.4381 42.0999 55.4381 40.631 56.0256 39.4559C56.0256 39.4559 56.0256 39.4559 56.0256 39.3091C58.8165 44.4501 68.8047 39.4559 70.1267 42.6875L70.2735 43.275H70.8611C71.8893 43.1282 73.0643 43.1282 73.2113 44.4501V45.0376L73.652 45.1844C75.5615 45.3313 76.2959 46.3595 76.2959 47.8284L76.2961 47.8285ZM60.2855 58.2573C60.5793 57.6698 61.0199 57.376 61.3137 57.0823C61.1669 57.5229 61.0199 57.8167 60.873 58.2573C60.7262 58.2573 60.5792 58.2573 60.2855 58.2573ZM66.4547 58.1105C66.3078 57.6698 65.8672 57.0823 65.4265 56.4948C66.1609 56.6416 66.8954 57.0823 67.4829 58.1105C67.1891 58.1105 66.7485 58.1105 66.4547 58.1105ZM61.9012 58.1105C61.9012 57.8167 62.0481 57.5229 62.0481 57.2291C62.0481 57.5229 62.0481 57.8167 62.1949 57.9635L61.9011 58.1104L61.9012 58.1105ZM64.9858 58.1105C64.9858 57.8167 64.839 57.3761 64.839 56.9354C65.1328 57.3761 65.2796 57.6698 65.4265 58.1105H64.9858ZM27.6769 41.3655C27.383 50.9131 31.349 58.9918 39.7215 66.7767C41.4841 68.6863 41.6311 70.7427 42.2186 72.6522C42.5124 72.5054 42.8061 72.3584 43.1 72.0647C42.9531 71.1833 42.9531 70.449 42.8061 69.8615C43.2468 70.1553 43.5405 70.7428 43.8343 71.624C44.1282 71.4772 44.275 71.1833 44.5687 71.0365C44.5687 70.7427 44.4219 70.449 44.4219 70.1552C44.4219 69.8613 44.275 69.4208 44.128 69.127C43.5405 67.6581 40.8966 65.6017 39.7214 64.5735C32.6709 58.4043 28.2643 50.4724 27.6767 41.3655H27.6769ZM28.1175 55.7603C17.9824 46.8002 20.4795 30.9365 28.2644 24.4735C27.383 28.1456 27.2362 31.8179 27.6769 35.6368C28.1175 31.524 29.1457 27.5581 30.7615 23.739C32.671 19.3324 35.4618 14.9259 38.987 11.1068C31.349 15.9541 23.5641 23.2983 20.6263 31.6709C18.1293 39.1621 19.3043 50.3254 28.1175 55.7603ZM16.9542 39.4559C12.6946 53.4102 14.0165 70.4489 27.3832 66.7767C19.1576 67.0706 16.2198 61.9294 16.9542 50.6193C19.0106 55.6134 23.4172 58.2573 27.53 59.5793C21.067 55.0259 17.248 50.0317 16.9542 39.4559ZM16.8072 68.6863C18.8636 79.1152 25.6203 79.5558 29.5863 75.7368C24.886 78.2339 21.6544 76.0306 20.1855 72.5054C24.0046 72.7992 25.914 71.771 27.8236 70.1552C24.4452 71.1833 20.92 71.3302 16.8072 68.6863ZM23.2702 82.4935C28.1175 89.9847 33.1116 86.3126 34.4336 83.6686C32.2303 85.5781 28.9988 85.8718 27.383 83.8154C29.4394 82.9341 30.9083 81.3184 31.6427 79.7026C29.1456 81.6122 26.3548 82.4935 23.2701 82.4935H23.2702ZM36.1963 85.5781C34.8743 88.222 32.8179 89.9847 30.1739 90.7191C32.671 93.51 36.6369 93.9506 38.2527 91.7473C38.2527 91.3066 38.1058 91.0129 38.1058 90.5723C37.0776 91.7473 35.4619 92.188 33.8462 91.0129C35.1682 89.3972 35.9026 87.6345 36.1964 85.5781H36.1963ZM39.5746 96.8883C39.4277 96.3008 39.2807 95.7133 39.1339 95.2726C38.5464 96.007 37.9588 96.3008 37.0775 96.4476C38.2525 97.182 39.1339 97.329 39.5746 96.8883ZM28.8519 58.8448C27.0893 68.2456 31.7897 67.2174 34.5804 66.9236C31.9365 66.4829 29.7331 65.4547 29.8801 62.6639C31.2021 63.5453 33.1116 63.839 34.5804 63.839C31.202 62.3701 29.5863 59.7262 28.8519 58.8448ZM28.9988 68.2456C28.8519 76.6182 33.9929 74.5616 35.7555 72.7991C33.2584 73.6804 31.202 73.2397 31.0552 70.8895C33.1116 71.0364 34.4336 70.1552 35.3148 69.2738C31.4957 70.302 29.88 68.98 28.9988 68.2456ZM30.9083 76.618C33.2585 82.4935 35.9025 80.8777 37.3713 78.8213C37.3713 78.5275 37.3713 78.3806 37.3713 78.0869C35.7556 79.4089 34.2867 79.5558 33.6992 78.2338C35.6087 77.3524 36.3431 75.8835 36.6369 74.7085C33.993 77.2056 31.9366 76.7649 30.9084 76.618H30.9083ZM34.5804 82.4935C35.7555 84.2561 36.7837 85.1375 37.5182 85.5781C37.3713 84.4031 37.3713 83.0811 37.3713 81.906C36.1963 82.6404 35.1681 82.4935 34.5804 82.4935ZM35.7556 66.7767C35.9025 72.9459 38.8402 71.7709 40.4559 71.0364C38.8402 71.1832 37.2245 70.8895 37.2245 68.98C38.2527 69.2738 39.134 69.1268 40.0154 68.98C37.6651 68.6862 36.1962 67.2174 35.7556 66.7767ZM36.7838 72.7991C37.0776 73.8273 37.3713 74.5616 37.6651 75.1493V74.7086L38.3995 74.4148C38.3995 74.2679 38.3995 74.2679 38.2527 74.121C39.5747 73.8271 40.1622 73.0928 40.6029 72.3584C38.5465 73.6804 37.3714 73.0928 36.7838 72.7991ZM25.3266 31.9647C22.8296 36.665 22.3889 46.0658 27.9706 52.6757C26.6485 50.9131 24.7391 44.7438 25.4735 39.7496C24.7391 37.5464 24.5921 34.7555 25.3266 31.9647ZM19.1575 58.1105C20.0388 62.2233 22.2421 64.7203 26.208 64.8672C24.5923 64.1328 23.2702 63.3983 22.5359 62.2233C23.5641 62.3701 24.7391 62.3701 25.9143 61.9294C23.1234 61.4888 20.9202 60.0199 19.1576 58.1104L19.1575 58.1105ZM24.5923 74.2679C25.6205 75.1493 26.9425 75.2961 28.2644 74.7086C27.8237 74.7086 27.383 74.5618 27.0893 74.2679C27.3832 73.9741 27.53 73.5336 27.53 73.2397C26.7956 73.9741 25.6205 74.2679 24.5923 74.2679ZM30.1739 83.5217C31.2021 83.6686 32.3772 83.8156 33.2585 82.7874C32.8179 82.9342 32.5242 82.9342 32.2303 82.7874C32.3772 82.3467 32.3772 81.906 32.2303 81.4653C31.9365 82.3467 31.2021 83.0811 30.1739 83.5217ZM35.9024 89.9847C36.6368 89.8379 37.3713 89.5441 37.812 88.9565C37.812 88.8097 37.812 88.6627 37.812 88.369C37.6651 88.369 37.5182 88.5159 37.3713 88.369C37.3713 88.0752 37.0775 87.4877 36.7838 87.194C36.9306 88.2222 36.49 89.2502 35.9024 89.9847ZM103.323 41.3655C103.617 50.9131 99.651 58.9918 91.2784 66.7767C89.5159 68.6863 89.3689 70.7427 88.7814 72.6522C88.4875 72.5054 88.1938 72.3584 87.9 72.0647C88.0469 71.1833 88.0469 70.449 88.1938 69.8615C87.7532 70.1553 87.4595 70.7428 87.1656 71.624C86.8718 71.4772 86.725 71.1833 86.4313 71.0365C86.4313 70.7427 86.5781 70.449 86.5781 70.1552C86.5781 69.8613 86.725 69.4208 86.8719 69.127C87.4595 67.6581 90.1034 65.6017 91.2785 64.5735C98.3291 58.4043 102.589 50.4724 103.323 41.3655H103.323ZM102.736 55.7603C112.871 46.6533 110.374 30.9365 102.589 24.3267C103.47 27.9988 103.617 31.671 103.176 35.49C102.736 31.3772 101.707 27.4113 100.092 23.5922C98.1821 19.1855 95.3913 14.7791 91.8661 10.96C99.5041 15.8073 107.289 23.1515 110.227 31.524C112.871 39.1621 111.696 50.3254 102.736 55.7603ZM113.899 39.4559C118.159 53.4102 116.837 70.4489 103.47 66.7767C111.696 67.0706 114.633 61.9294 113.899 50.6193C111.843 55.6134 107.436 58.2573 103.323 59.5793C109.786 55.0259 113.605 50.0317 113.899 39.4559ZM114.046 68.6863C111.989 79.1152 105.233 79.5558 101.267 75.7368C105.967 78.2339 109.199 76.0306 110.667 72.5054C106.848 72.7992 104.939 71.771 103.029 70.1552C106.555 71.1833 110.08 71.3302 114.046 68.6863ZM107.583 82.4935C102.736 89.9847 97.7416 86.3126 96.4195 83.6686C98.6228 85.5781 101.854 85.8718 103.47 83.8154C101.414 82.9341 99.9448 81.3184 99.2104 79.7026C101.854 81.6122 104.645 82.4935 107.583 82.4935H107.583ZM94.8037 85.5781C96.1257 88.222 98.1821 89.9847 100.826 90.7191C98.329 93.51 94.363 93.9506 92.7473 91.7473C92.7473 91.3066 92.8941 91.0129 92.8941 90.5723C93.9223 91.7473 95.5381 92.188 97.1538 91.0129C95.8318 89.3972 95.0974 87.6345 94.8036 85.5781H94.8037ZM91.4254 96.8883C91.5723 96.3008 91.7192 95.7133 91.8661 95.2726C92.4536 96.007 93.0411 96.3008 93.9225 96.4476C92.6004 97.182 91.8661 97.329 91.4254 96.8883ZM102.001 58.8448C103.764 68.2456 99.0635 67.2174 96.2727 66.9236C98.9166 66.4829 101.12 65.4547 100.973 62.6639C99.798 63.5453 97.7416 63.6921 96.4195 63.6921C99.798 62.3701 101.267 59.7262 102.001 58.8448ZM101.854 68.2456C102.001 76.6182 96.8601 74.5616 95.0975 72.7991C97.5946 73.6804 99.651 73.2397 99.7978 70.8895C97.7414 71.0364 96.4194 70.1552 95.5382 69.2738C99.3573 70.302 101.12 68.98 101.854 68.2456ZM99.9448 76.618C97.5946 82.4935 94.9507 80.8777 93.4818 78.8213C93.4818 78.5275 93.4818 78.3806 93.4818 78.0869C95.0975 79.4089 96.5664 79.5558 97.1539 78.2338C95.2444 77.3524 94.51 75.8835 94.2162 74.7085C96.8601 77.2056 98.9166 76.7649 99.9448 76.618ZM96.4195 82.4935C95.2445 84.2561 94.2163 85.1375 93.4818 85.5781C93.6286 84.4031 93.6286 83.0811 93.6286 81.906C94.6568 82.6404 95.685 82.4935 96.4195 82.4935ZM95.2444 66.7767C95.0975 72.9459 92.1598 71.7709 90.5441 71.0364C92.1598 71.1832 93.7755 70.8895 93.7755 68.98C92.7473 69.2738 91.866 69.1268 90.9846 68.98C93.3348 68.6862 94.6567 67.2174 95.2442 66.7767H95.2444ZM94.2162 72.7991C93.9223 73.8273 93.6286 74.5616 93.3348 75.1493V74.7086L92.4535 74.4148C92.4535 74.2679 92.4535 74.2679 92.6003 74.121C91.2783 73.8271 90.6908 73.0928 90.2501 72.3584C92.3065 73.6804 93.6286 73.0928 94.2162 72.7991ZM105.526 31.9647C108.024 36.665 108.464 46.0658 102.883 52.6757C104.205 50.9131 106.114 44.7438 105.38 39.7496C106.114 37.5464 106.408 34.7555 105.526 31.9647ZM111.696 58.1105C110.814 62.2233 108.611 64.7203 104.645 64.8672C106.261 64.1328 107.583 63.3983 108.317 62.2233C107.289 62.3701 106.114 62.3701 104.939 61.9294C107.877 61.4888 110.08 60.0199 111.696 58.1104L111.696 58.1105ZM106.408 74.2679C105.38 75.1493 104.057 75.2961 102.736 74.7086C103.176 74.7086 103.617 74.5618 103.911 74.2679C103.617 73.9741 103.47 73.5336 103.47 73.2397C104.204 73.9741 105.233 74.2679 106.408 74.2679ZM100.826 83.5217C99.7978 83.6686 98.6228 83.8156 97.7414 82.7874C98.1821 82.9342 98.4758 82.9342 98.7696 82.7874C98.6228 82.3467 98.6228 81.906 98.7696 81.4653C98.9165 82.3467 99.7978 83.0811 100.826 83.5217ZM95.0975 89.9847C94.3631 89.8379 93.6286 89.5441 93.188 88.9565C93.188 88.8097 93.188 88.6627 93.188 88.369C93.3348 88.369 93.4818 88.5159 93.6286 88.369C93.6286 88.0752 93.9225 87.4877 94.2162 87.194C94.0693 88.2222 94.363 89.2502 95.0975 89.9847ZM65.5735 42.3937C67.6299 43.4219 69.0987 42.5405 70.2738 43.1281C71.1551 43.5687 71.5958 45.3313 70.4206 45.6251C70.4206 44.7438 69.6863 44.8907 69.2456 44.8907C68.8049 44.8907 68.3642 44.4501 68.3642 44.0094C68.3642 43.8625 68.3642 43.7156 68.5111 43.5687C67.4829 43.5687 66.308 43.4219 65.5735 42.3937ZM57.2009 41.953C57.0541 43.4219 57.6416 44.5969 58.9635 45.3314C58.6697 44.7439 58.5228 44.1564 58.376 43.4219C60.5792 43.7157 62.9294 43.275 64.839 42.3937C61.9012 43.1281 59.4042 42.8344 57.2009 41.953ZM82.4653 94.9789C83.6404 95.5664 84.8155 95.5664 85.9906 95.2727C87.1656 94.979 88.1938 94.3914 88.9283 93.3632C89.9565 92.1881 90.2504 90.7192 90.1034 89.3972C89.9565 88.369 89.5159 87.194 88.7814 86.3126C89.0752 85.7251 89.222 85.1376 89.3689 84.4031C89.5157 83.228 89.5157 82.0529 89.0751 81.0247C88.6344 79.9965 88.0469 79.1151 87.1655 78.2338C86.2842 77.4994 85.1091 77.0587 84.0809 76.7649C82.9059 76.618 81.7307 76.7649 80.7025 77.0587C79.9681 77.3525 79.2336 77.7931 78.6461 78.2338C77.6179 77.6462 76.5897 77.4994 75.5615 77.6462C74.2395 77.7931 72.7706 78.3806 71.8894 79.5558C71.155 80.4371 70.7143 81.6122 70.5674 82.7872C70.5674 83.9623 70.8612 85.1375 71.5956 86.1656C71.8894 86.7532 72.6238 86.7532 73.2113 86.4595C73.7988 86.1658 73.7988 85.4313 73.5051 84.8438C73.0644 84.2562 72.9176 83.5217 72.9176 82.9342C72.9176 82.1998 73.2114 81.6122 73.652 81.0247C74.2395 80.2903 74.974 79.9965 75.8552 79.8496C76.2959 79.8496 76.8834 79.8496 77.3241 79.9965C77.0303 80.584 76.7366 81.3185 76.5897 81.906C76.4429 82.4935 76.8835 83.0811 77.4711 83.228C78.0586 83.3749 78.6461 82.9342 78.7931 82.3467C78.9399 81.6123 79.2337 80.8778 79.6744 80.4371C80.1151 79.8496 80.8495 79.4089 81.437 79.1151C82.1714 78.8213 82.9059 78.8213 83.6402 78.9683C84.3746 79.1152 84.9623 79.4089 85.5498 79.8496C86.1373 80.2903 86.578 81.0247 86.8718 81.6122C87.1656 82.3466 87.1656 83.0811 87.0187 83.8154C86.8717 84.5498 86.578 85.2843 86.1373 85.8718C85.6966 86.4594 85.1091 86.9 84.3747 87.0469C83.7872 87.1937 83.4934 87.9282 83.6404 88.5157C83.7873 89.1033 84.5217 89.3971 85.1092 89.2501C85.9906 88.9563 86.5781 88.5157 87.1656 87.9281C87.4595 88.3688 87.6063 88.8094 87.6063 89.2501C87.7532 90.1315 87.4595 90.8658 86.8719 91.6003C86.4313 92.1879 85.8437 92.4817 85.1094 92.6285C84.375 92.7754 83.7873 92.7754 83.053 92.4817C82.4654 92.1879 81.7309 92.4817 81.5841 93.0692C81.5841 94.0974 81.8779 94.8318 82.4654 94.9788L82.4653 94.9789ZM81.2903 97.329C81.2903 97.7697 81.2903 98.0634 81.2903 98.504V98.9447L77.9118 100.414L77.765 100.854C77.6181 101.295 77.4712 101.736 77.3243 102.176C77.1775 102.617 76.8837 103.058 76.7368 103.498L76.443 103.939L77.765 107.317C77.4712 107.758 77.0306 108.199 76.7368 108.492C76.2961 108.933 76.0024 109.227 75.5618 109.521L72.1833 108.199L71.7427 108.492C71.302 108.639 70.8613 108.933 70.4206 109.08C69.98 109.227 69.5393 109.374 69.0986 109.521L68.5111 109.667L67.0422 113.046H66.6015C66.3077 113.046 65.8672 113.046 65.4265 113.046C64.9858 113.046 64.6921 113.046 64.2514 113.046H63.8108L62.3419 109.667L61.7544 109.521C61.3137 109.374 60.873 109.227 60.4324 109.08C59.9917 108.933 59.551 108.639 59.1103 108.492L58.6697 108.199L55.2912 109.521C54.8506 109.227 54.4099 108.786 54.1162 108.492C53.6755 108.052 53.3818 107.758 53.088 107.317L54.41 103.939L54.2632 103.645C54.1163 103.204 53.8225 102.764 53.6756 102.323C53.5288 101.882 53.3818 101.442 53.235 101.001L53.0881 100.414L49.7097 98.9447V98.504C49.7097 98.2102 49.7097 97.7697 49.7097 97.329C49.7097 96.7415 49.1222 96.1539 48.5347 96.1539C47.9471 96.1539 47.3596 96.7415 47.3596 97.329C47.3596 97.7697 47.3596 98.2103 47.3596 98.651C47.3596 99.0917 47.5065 99.5323 47.5065 99.973L47.6533 100.561L51.1786 102.176C51.3254 102.47 51.4724 102.911 51.6192 103.204C51.7661 103.498 51.9131 103.939 52.0599 104.233L50.591 107.758L51.0317 108.345C51.6192 109.08 52.0599 109.667 52.7943 110.255C53.3818 110.843 54.1163 111.43 54.7038 112.018L55.1445 112.458L58.8166 110.989C59.1105 111.136 59.551 111.283 59.8448 111.43C60.1387 111.577 60.5792 111.724 60.873 111.871L62.3419 115.396L62.9294 115.543C63.3701 115.543 63.8108 115.69 64.2514 115.69C64.6921 115.69 65.1328 115.69 65.5735 115.69C66.0141 115.69 66.4548 115.69 66.8955 115.69C67.3362 115.69 67.7768 115.543 68.2175 115.543L68.805 115.396L70.4208 111.871C70.7146 111.724 71.1551 111.577 71.449 111.43C71.7428 111.283 72.1833 111.136 72.4772 110.989L76.0024 112.458L76.59 112.018C77.3243 111.43 77.912 110.989 78.4995 110.255C79.087 109.667 79.6745 108.933 80.2621 108.345L80.7027 107.905L79.2339 104.233C79.3807 103.939 79.5277 103.498 79.6745 103.204C79.8214 102.911 79.9684 102.47 80.1152 102.176L83.6405 100.707L83.7873 100.12C83.7873 99.6792 83.9342 99.2385 83.9342 98.7979C83.9342 98.3572 83.9342 97.9165 83.9342 97.4758C83.9342 96.8883 83.3467 96.3008 82.7591 96.3008C81.8778 96.3008 81.2903 96.7415 81.2903 97.329ZM49.5629 85.4313C51.4724 78.9683 46.772 79.4089 45.3032 76.4712C46.6252 79.5558 43.2468 82.7872 49.5629 85.4313ZM78.7932 87.047C78.3525 87.6345 77.9118 88.222 77.6181 88.6627C77.4713 88.9565 77.1775 89.2502 77.0306 89.3971C76.59 89.1033 76.2962 88.9564 75.8556 88.6627C75.1212 88.3689 74.2399 88.0752 73.3585 87.9283C72.771 87.7815 72.1835 88.2222 72.0365 88.8097C71.8895 89.3972 72.3303 89.9847 72.9178 90.1317C73.5054 90.2786 74.2398 90.4255 74.8274 90.7192C75.1212 90.8661 75.2681 91.0131 75.5618 91.1599C73.5054 93.5101 71.1551 95.7134 68.5112 97.6229C67.483 98.5043 66.308 99.2386 65.1328 99.9731C64.839 99.8263 64.5453 99.5325 64.2514 99.3856C63.6639 99.0918 63.0764 99.0918 62.6357 99.6794C62.3419 100.267 62.3419 100.854 62.9296 101.295C61.7545 102.03 60.4325 102.617 59.1105 103.205C58.5229 103.499 58.2291 104.086 58.5229 104.674C58.8168 105.261 59.4043 105.555 59.9918 105.261C61.7544 104.527 63.3702 103.645 64.9859 102.764C65.5735 103.058 66.161 103.498 66.7485 103.792C68.0705 104.527 69.3924 105.261 70.8613 105.849C71.4488 106.142 72.1833 105.849 72.3302 105.261C72.624 104.674 72.3302 103.939 71.7427 103.792C70.4206 103.205 69.0987 102.617 67.7767 101.883C67.6299 101.736 67.336 101.589 67.1892 101.589C68.0705 101.001 68.9518 100.414 69.8331 99.8263C72.477 97.7699 74.9741 95.4197 77.1775 92.9226C77.3243 93.0695 77.4713 93.3633 77.765 93.5101C78.2057 94.0977 78.4994 94.6852 78.6463 95.2727C78.7933 95.8602 79.5277 96.1541 80.1152 96.0071C80.7027 95.8602 80.9966 95.1257 80.8496 94.5382C80.5558 93.8038 80.1152 92.9225 79.6745 92.335C79.3807 91.8943 79.087 91.6006 78.7932 91.1599C79.087 90.8661 79.2339 90.5724 79.5276 90.2786C79.9682 89.691 80.4089 89.1035 80.8496 88.516C81.1434 87.9285 81.1434 87.3409 80.5558 86.9003C79.9681 86.4596 79.2337 86.4595 78.7932 87.047ZM62.7826 92.335C65.5735 96.5946 62.1951 97.0353 61.9012 99.3855C59.9917 95.2727 62.4888 94.6852 62.7826 92.335ZM52.9413 98.5042C57.3479 102.617 58.5229 98.798 61.3138 98.9448C57.0542 95.8602 55.7322 98.651 52.9413 98.5042ZM49.1222 94.0975C53.0881 99.3854 54.9977 95.5664 57.9353 96.3008C53.9693 92.0411 52.0598 94.8319 49.1222 94.0975ZM57.3478 86.7532C57.2009 89.3971 54.41 90.2784 56.9071 94.8319C57.0539 92.188 60.873 91.4535 57.3478 86.7532ZM55.2914 82.9342C54.9975 85.7251 51.9129 86.4595 54.2632 91.4536C54.7038 88.6627 58.6698 88.2222 55.2914 82.9342ZM46.1844 89.8379C49.5629 95.5664 51.9129 91.8943 54.8507 92.9225C51.1786 88.369 48.9752 90.8661 46.1844 89.8379ZM43.6874 85.1375C46.1844 91.3066 49.1222 88.0752 51.7661 89.3971C48.9752 84.403 46.3313 86.6062 43.6874 85.1375ZM52.2068 79.4089C52.0599 82.4935 48.9753 83.5217 51.9129 88.5159C51.9129 85.4313 56.1726 84.6968 52.2068 79.4089ZM60.4324 89.2502C60.1385 91.8942 57.2009 92.6287 59.551 97.329C59.8448 94.5381 63.517 94.2444 60.4324 89.2502ZM60.873 81.6122V87.3407L67.336 93.8037C67.7767 94.2444 68.5111 94.2444 68.9518 93.8037C69.3924 93.363 69.3924 92.6287 68.9518 92.188L63.2233 86.4595V75.8837L66.8954 72.2115V68.8331C67.4829 68.3925 67.9236 67.8049 67.9236 67.0706C67.9236 65.8955 66.8954 64.8673 65.7203 64.8673C64.5453 64.8673 63.5171 65.8955 63.5171 67.0706C63.5171 67.8049 63.9577 68.5394 64.5453 68.8331V71.3302L60.8731 75.0023V78.3807L58.2292 75.7368V68.8331C58.8168 68.3925 59.2574 67.8049 59.2574 67.0706C59.2574 65.8955 58.2292 64.8673 57.0542 64.8673C55.8791 64.8673 54.8509 65.8955 54.8509 67.0706C54.8509 67.8049 55.2916 68.5394 55.8791 68.8331V76.765L60.8733 81.6123L60.873 81.6122ZM70.5676 66.3361C70.1269 66.3361 69.8332 66.6299 69.8332 67.0704C69.8332 67.511 70.1271 67.8048 70.5676 67.8048C71.0083 67.8048 71.302 67.511 71.302 67.0704C71.302 66.6299 70.8613 66.3361 70.5676 66.3361ZM65.5735 66.3361C65.1328 66.3361 64.8391 66.6299 64.8391 67.0704C64.8391 67.511 65.1329 67.8048 65.5735 67.8048C66.0141 67.8048 66.3078 67.511 66.3078 67.0704C66.3078 66.6299 66.014 66.3361 65.5735 66.3361ZM57.0541 66.3361C56.6134 66.3361 56.3197 66.6299 56.3197 67.0704C56.3197 67.511 56.6135 67.8048 57.0541 67.8048C57.4947 67.8048 57.7884 67.511 57.7884 67.0704C57.7884 66.6299 57.4946 66.3361 57.0541 66.3361Z" fill="#00588E"/>
<path d="M65.4265 127C86.5781 116.865 98.4758 100.267 95.2444 72.9459C87.7532 71.0364 83.3465 66.6299 82.759 59.1387C77.618 56.9354 71.7425 55.7603 65.4265 55.7603C59.1105 55.7603 53.235 56.7885 48.094 59.1387C47.3596 66.483 42.953 71.0365 35.6086 72.9459C32.3772 100.267 44.2749 116.865 65.4265 127ZM51.4724 61.6357C55.879 60.02 60.7262 59.2855 65.5735 59.2855C70.2738 59.2855 75.1211 60.0199 79.6745 61.6357C80.9966 68.6863 85.55 73.2397 92.1599 75.59C94.0694 97.7698 85.4032 113.046 65.7205 123.034C46.0377 113.046 37.2246 97.7698 39.281 75.59C45.597 73.2397 50.1505 68.6863 51.4725 61.6357H51.4724Z" fill="#00588E"/>
</g>
<defs>
<clipPath id="clip0_2_4">
<rect width="125" height="125" fill="white" transform="translate(3 2)"/>
</clipPath>
</defs>
</svg>
