<svg xmlns="http://www.w3.org/2000/svg" version="1.1" xmlns:xlink="http://www.w3.org/1999/xlink" width="125" height="125"><svg data-v-67e5677b="" xmlns="http://www.w3.org/2000/svg" version="1.1" width="125" height="125" viewBox="0 0 1024 1024"><g data-v-67e5677b="" id="SvgjsG1001"></g><path data-v-67e5677b="" fill="#00588e" d="M553.514 515.008c9.626 0 18.049 8.423 18.049 18.049 0 6.016-3.61 12.033-8.423 14.439v42.115l-30.082 30.082v57.758c0 4.813-4.813 9.626-9.626 9.626s-9.626-4.813-9.626-9.626v-62.571c0-1.203 0-1.203 0-2.407v0 0 0 0 0 0 0 0 0 0 0 0 0 0 0 0 0 0 0 0 0 0 0 0c0 0 0 0 1.203-1.203v0 0 0 0 0 0l26.472-26.472v-34.895c-4.813-3.61-8.423-8.423-8.423-14.439 2.407-13.236 10.83-20.456 20.456-20.456v0zM457.25 0c-43.318 15.643-85.434 38.505-119.126 68.588-37.302 32.489-67.384 73.401-86.637 119.126-12.033 28.879-20.456 58.961-24.066 90.247-8.423 85.434 25.269 160.038 90.247 215.389 9.626 8.423 19.253 16.846 27.676 25.269 6.016 7.22 12.033 13.236 15.643 22.863 0 0 0 1.203 1.203 1.203-3.61 4.813-7.22 9.626-10.83 13.236 0-3.61-1.203-7.22-2.407-9.626-2.407-7.22-7.22-12.033-12.033-18.049-8.423-8.423-18.049-16.846-27.676-24.066-68.588-58.961-103.483-137.175-95.060-227.422 3.61-32.489 12.033-63.774 24.066-93.857 31.286-70.994 74.604-120.329 141.988-157.631-90.247 28.879-231.032 117.922-255.098 243.065-1.203-2.407-4.813-8.423-7.22-13.236-34.895 78.214-51.741 202.153-12.033 265.927-6.016-2.407-10.83-4.813-13.236-8.423 9.626 46.928 26.472 128.752 95.060 127.549-16.846 3.61-34.895 3.61-46.928 1.203 16.846 30.082 44.522 72.197 85.434 69.791-6.016 4.813-19.253 8.423-26.472 9.626 13.236 14.439 37.302 43.318 75.807 38.505-4.813 4.813-13.236 7.22-24.066 8.423 18.049 14.439 37.302 26.472 57.758 37.302 2.407 6.016 6.016 13.236 8.423 19.253-32.489-15.643-63.774-36.099-91.45-60.165 3.61 0 6.016 0 8.423-1.203-30.082-10.83-44.522-32.489-57.758-48.132 3.61 0 6.016 0 8.423-1.203-31.286-15.643-52.945-57.758-67.384-84.23 3.61 1.203 9.626 1.203 12.033 0-37.302-34.895-49.335-92.653-56.555-139.582 2.407 1.203 3.61 2.407 4.813 2.407-15.643-68.588-13.236-160.038 37.302-261.114 1.203 2.407 2.407 3.61 4.813 4.813 49.335-133.565 191.323-223.812 336.921-235.845v0zM644.964 955.412c-7.22 4.813-14.439 9.626-16.846 19.253-10.83 6.016-19.253 9.626-34.895 12.033 15.643 2.407 30.082 1.203 45.725-2.407-1.203-10.83 1.203-21.659 6.016-28.879v0zM679.859 912.094c0 4.813 0 10.83 0 14.439-4.813 3.61-14.439 7.22-22.863 8.423 15.643 2.407 30.082 1.203 43.318-4.813-8.423-3.61-14.439-8.423-20.456-18.049v0zM648.573 946.989c24.066 7.22 51.741 7.22 78.214-13.236-22.863-13.236-42.115-31.286-54.148-54.148l10.83-9.626c13.236 27.676 37.302 48.132 67.384 60.165-19.253 24.066-50.538 37.302-77.011 34.895-9.626 10.83-13.236 31.286-3.61 44.522-49.335 6.016-78.214 14.439-111.906-12.033l2.407-15.643c12.033 8.423 20.456 15.643 34.895 18.049 9.626 1.203 20.456 1.203 30.082 0 8.423-1.203 15.643-2.407 24.066-2.407-1.203-13.236 1.203-27.676 9.626-37.302-3.61-4.813-8.423-7.22-10.83-13.236v0zM379.036 955.412c7.22 4.813 14.439 9.626 16.846 19.253 10.83 6.016 19.253 9.626 34.895 12.033-15.643 2.407-30.082 1.203-45.725-2.407 0-10.83-2.407-21.659-6.016-28.879v0zM342.938 912.094c0 4.813 0 10.83 0 14.439 4.813 3.61 14.439 7.22 22.863 8.423-15.643 2.407-30.082 1.203-43.318-4.813 9.626-3.61 14.439-8.423 20.456-18.049v0zM374.223 946.989c-24.066 7.22-51.741 7.22-78.214-13.236 22.863-13.236 42.115-31.286 54.148-54.148l-10.83-9.626c-13.236 27.676-37.302 48.132-67.384 60.165 19.253 24.066 50.538 37.302 77.011 34.895 9.626 10.83 13.236 31.286 3.61 44.522 49.335 6.016 78.214 14.439 111.906-12.033l-2.407-15.643c-12.033 8.423-20.456 15.643-34.895 18.049-9.626 1.203-20.456 1.203-30.082 0-8.423-1.203-15.643-2.407-24.066-2.407 1.203-13.236-1.203-27.676-9.626-37.302 4.813-4.813 8.423-7.22 10.83-13.236v0zM660.606 542.684c3.61 4.813 7.22 9.626 10.83 13.236 0-3.61 1.203-7.22 2.407-9.626 2.407-7.22 7.22-12.033 12.033-18.049 8.423-8.423 18.049-16.846 27.676-24.066 68.588-58.961 103.483-137.175 95.060-227.422-3.61-32.489-12.033-63.774-24.066-93.857-31.286-72.197-74.604-121.532-141.988-158.834 90.247 28.879 232.235 117.922 256.301 243.065 1.203-2.407 4.813-8.423 7.22-13.236 34.895 78.214 50.538 203.356 12.033 265.927 6.016-2.407 10.83-4.813 13.236-8.423-9.626 46.928-26.472 128.752-95.060 127.549 16.846 3.61 34.895 3.61 46.928 1.203-16.846 30.082-44.522 72.197-85.434 69.791 6.016 4.813 19.253 8.423 26.472 9.626-13.236 14.439-37.302 43.318-75.807 38.505 4.813 4.813 13.236 7.22 24.066 8.423-18.049 14.439-37.302 26.472-57.758 37.302-2.407 6.016-6.016 13.236-8.423 19.253 32.489-15.643 63.774-36.099 91.45-60.165-3.61 0-6.016 0-8.423-1.203 30.082-10.83 44.522-32.489 57.758-48.132-3.61 0-6.016 0-8.423-1.203 31.286-15.643 52.945-57.758 67.384-84.23-3.61 1.203-9.626 1.203-12.033 0 37.302-34.895 49.335-92.653 56.555-139.582-2.407 1.203-3.61 2.407-4.813 2.407 15.643-68.588 13.236-160.038-37.302-261.114-1.203 2.407-2.407 3.61-4.813 4.813-49.335-132.362-191.323-222.609-338.125-234.642 43.318 15.643 85.434 38.505 119.126 68.588 37.302 32.489 67.384 73.401 86.637 119.126 12.033 28.879 20.456 58.961 24.066 90.247 8.423 85.434-25.269 160.038-90.247 215.389-9.626 8.423-19.253 16.846-27.676 25.269-6.016 7.22-12.033 13.236-15.643 22.863 0 0 0 0-1.203 1.203v0zM495.756 442.811c-14.439-4.813-19.253-19.253-13.236-34.895 0 10.83 3.61 19.253 12.033 22.863 8.423-6.016 10.83-14.439 8.423-25.269 8.423 15.643 6.016 31.286-7.22 37.302v0zM600.442 375.427c-7.22-3.61-14.439-4.813-21.659-4.813-3.61 0-7.22-2.407-6.016-9.626-7.22 16.846-9.626 26.472-31.286 21.659-12.033-2.407-18.049 7.22-15.643 18.049 1.203 6.016 3.61 15.643-2.407 21.659-2.407-9.626-8.423-14.439-14.439-18.049 9.626 15.643 6.016 25.269 3.61 30.082 25.269-4.813 25.269 15.643 21.659 25.269 6.016 0 12.033 1.203 16.846 1.203-6.016-20.456-10.83-40.912-13.236-62.571 0-3.61 0-4.813 2.407-3.61 14.439 2.407 27.676 0 36.099-12.033 14.439-1.203 25.269 3.61 36.099 10.83 2.407-22.863 3.61-44.522-24.066-52.945-3.61-13.236-14.439-18.049-27.676-16.846-18.049-27.676-81.824 1.203-107.093-16.846-8.423-6.016-10.83-16.846-12.033-26.472-8.423 8.423-15.643 14.439-19.253 26.472-6.016 16.846-2.407 37.302 8.423 51.741 7.22 9.626 18.049 16.846 28.879 19.253-1.203 1.203-2.407 2.407-2.407 3.61-14.439 22.863-12.033 56.555-12.033 83.027 3.61-1.203 8.423-1.203 12.033-2.407-3.61-12.033 0-26.472 18.049-27.676-2.407-4.813-6.016-14.439 3.61-30.082-6.016 2.407-12.033 8.423-14.439 18.049-4.813-7.22-4.813-14.439-2.407-20.456 1.203-3.61 2.407-6.016 3.61-8.423 0 0 0-1.203 0-1.203 12.033-24.066 55.351-8.423 67.384-45.725-3.61 4.813-8.423 8.423-13.236 10.83-7.22 3.61-13.236-10.83-22.863-10.83 3.61 2.407 4.813 7.22 4.813 12.033-1.203 4.813-3.61 6.016-7.22 2.407s-6.016-10.83-13.236-12.033c3.61 3.61 3.61 8.423 2.407 12.033-1.203 4.813-4.813 7.22-8.423 2.407-2.407-2.407-3.61-7.22-7.22-9.626 1.203 6.016-4.813 12.033-12.033 8.423-10.83-4.813-18.049-12.033-22.863-22.863-3.61-10.83-3.61-22.863 1.203-32.489 0 0 0 0 0-1.203 22.863 42.115 104.686 1.203 115.516 27.676l1.203 4.813h4.813c8.423-1.203 18.049-1.203 19.253 9.626v4.813l3.61 1.203c15.643 1.203 21.659 9.626 21.659 21.659v0zM469.283 460.86c2.407-4.813 6.016-7.22 8.423-9.626-1.203 3.61-2.407 6.016-3.61 9.626-1.203 0-2.407 0-4.813 0v0zM519.821 459.657c-1.203-3.61-4.813-8.423-8.423-13.236 6.016 1.203 12.033 4.813 16.846 13.236-2.407 0-6.016 0-8.423 0v0zM482.519 459.657c0-2.407 1.203-4.813 1.203-7.22 0 2.407 0 4.813 1.203 6.016l-2.407 1.203zM507.788 459.657c0-2.407-1.203-6.016-1.203-9.626 2.407 3.61 3.61 6.016 4.813 9.626h-3.61zM202.153 322.482c-2.407 78.214 30.082 144.395 98.67 208.169 14.439 15.643 15.643 32.489 20.456 48.132 2.407-1.203 4.813-2.407 7.22-4.813-1.203-7.22-1.203-13.236-2.407-18.049 3.61 2.407 6.016 7.22 8.423 14.439 2.407-1.203 3.61-3.61 6.016-4.813 0-2.407-1.203-4.813-1.203-7.22s-1.203-6.016-2.407-8.423c-4.813-12.033-26.472-28.879-36.099-37.302-57.758-50.538-93.857-115.516-98.67-190.12v0zM205.763 440.404c-83.027-73.401-62.571-203.356 1.203-256.301-7.22 30.082-8.423 60.165-4.813 91.45 3.61-33.692 12.033-66.181 25.269-97.467 15.643-36.099 38.505-72.197 67.384-103.483-62.571 39.709-126.345 99.873-150.411 168.461-20.456 61.368-10.83 152.818 61.368 197.34v0zM114.313 306.839c-34.895 114.313-24.066 253.894 85.434 223.812-67.384 2.407-91.45-39.709-85.434-132.362 16.846 40.912 52.945 62.571 86.637 73.401-52.945-37.302-84.23-78.214-86.637-164.851v0zM113.109 546.294c16.846 85.434 72.197 89.043 104.686 57.758-38.505 20.456-64.978 2.407-77.011-26.472 31.286 2.407 46.928-6.016 62.571-19.253-27.676 8.423-56.555 9.626-90.247-12.033v0zM166.054 659.403c39.709 61.368 80.62 31.286 91.45 9.626-18.049 15.643-44.522 18.049-57.758 1.203 16.846-7.22 28.879-20.456 34.895-33.692-20.456 15.643-43.318 22.863-68.588 22.863v0zM271.944 684.672c-10.83 21.659-27.676 36.099-49.335 42.115 20.456 22.863 52.945 26.472 66.181 8.423 0-3.61-1.203-6.016-1.203-9.626-8.423 9.626-21.659 13.236-34.895 3.61 10.83-13.236 16.846-27.676 19.253-44.522v0zM299.619 777.325c-1.203-4.813-2.407-9.626-3.61-13.236-4.813 6.016-9.626 8.423-16.846 9.626 9.626 6.016 16.846 7.22 20.456 3.61v0zM211.779 465.673c-14.439 77.011 24.066 68.588 46.928 66.181-21.659-3.61-39.709-12.033-38.505-34.895 10.83 7.22 26.472 9.626 38.505 9.626-27.676-12.033-40.912-33.692-46.928-40.912v0zM212.982 542.684c-1.203 68.588 40.912 51.741 55.351 37.302-20.456 7.22-37.302 3.61-38.505-15.643 16.846 1.203 27.676-6.016 34.895-13.236-31.286 8.423-44.522-2.407-51.741-8.423v0zM228.625 611.271c19.253 48.132 40.912 34.895 52.945 18.049 0-2.407 0-3.61 0-6.016-13.236 10.83-25.269 12.033-30.082 1.203 15.643-7.22 21.659-19.253 24.066-28.879-21.659 20.456-38.505 16.846-46.928 15.643v0zM258.707 659.403c9.626 14.439 18.049 21.659 24.066 25.269-1.203-9.626-1.203-20.456-1.203-30.082-9.626 6.016-18.049 4.813-22.863 4.813v0zM268.334 530.651c1.203 50.538 25.269 40.912 38.505 34.895-13.236 1.203-26.472-1.203-26.472-16.846 8.423 2.407 15.643 1.203 22.863 0-19.253-2.407-31.286-14.439-34.895-18.049v0zM276.757 579.986c2.407 8.423 4.813 14.439 7.22 19.253v-3.61l6.016-2.407c0-1.203 0-1.203-1.203-2.407 10.83-2.407 15.643-8.423 19.253-14.439-16.846 10.83-26.472 6.016-31.286 3.61v0zM182.9 245.471c-20.456 38.505-24.066 115.516 21.659 169.664-10.83-14.439-26.472-64.978-20.456-105.89-6.016-18.049-7.22-40.912-1.203-63.774v0zM132.362 459.657c7.22 33.692 25.269 54.148 57.758 55.351-13.236-6.016-24.066-12.033-30.082-21.659 8.423 1.203 18.049 1.203 27.676-2.407-22.863-3.61-40.912-15.643-55.351-31.286v0zM176.884 592.019c8.423 7.22 19.253 8.423 30.082 3.61-3.61 0-7.22-1.203-9.626-3.61 2.407-2.407 3.61-6.016 3.61-8.423-6.016 6.016-15.643 8.423-24.066 8.423v0zM222.609 667.826c8.423 1.203 18.049 2.407 25.269-6.016-3.61 1.203-6.016 1.203-8.423 0 1.203-3.61 1.203-7.22 0-10.83-2.407 7.22-8.423 13.236-16.846 16.846v0zM269.537 720.771c6.016-1.203 12.033-3.61 15.643-8.423 0-1.203 0-2.407 0-4.813-1.203 0-2.407 1.203-3.61 0 0-2.407-2.407-7.22-4.813-9.626 1.203 8.423-2.407 16.846-7.22 22.863v0zM821.847 322.482c2.407 78.214-30.082 144.395-98.67 208.169-14.439 15.643-15.643 32.489-20.456 48.132-2.407-1.203-4.813-2.407-7.22-4.813 1.203-7.22 1.203-13.236 2.407-18.049-3.61 2.407-6.016 7.22-8.423 14.439-2.407-1.203-3.61-3.61-6.016-4.813 0-2.407 1.203-4.813 1.203-7.22s1.203-6.016 2.407-8.423c4.813-12.033 26.472-28.879 36.099-37.302 57.758-50.538 92.653-115.516 98.67-190.12v0zM817.034 440.404c83.027-74.604 62.571-203.356-1.203-257.504 7.22 30.082 8.423 60.165 4.813 91.45-3.61-33.692-12.033-66.181-25.269-97.467-15.643-36.099-38.505-72.197-67.384-103.483 62.571 39.709 126.345 99.873 150.411 168.461 21.659 62.571 12.033 154.021-61.368 198.543v0zM908.484 306.839c34.895 114.313 24.066 253.894-85.434 223.812 67.384 2.407 91.45-39.709 85.434-132.362-16.846 40.912-52.945 62.571-86.637 73.401 52.945-37.302 84.23-78.214 86.637-164.851v0zM909.687 546.294c-16.846 85.434-72.197 89.043-104.686 57.758 38.505 20.456 64.978 2.407 77.011-26.472-31.286 2.407-46.928-6.016-62.571-19.253 28.879 8.423 57.758 9.626 90.247-12.033v0zM856.743 659.403c-39.709 61.368-80.62 31.286-91.45 9.626 18.049 15.643 44.522 18.049 57.758 1.203-16.846-7.22-28.879-20.456-34.895-33.692 21.659 15.643 44.522 22.863 68.588 22.863v0zM752.056 684.672c10.83 21.659 27.676 36.099 49.335 42.115-20.456 22.863-52.945 26.472-66.181 8.423 0-3.61 1.203-6.016 1.203-9.626 8.423 9.626 21.659 13.236 34.895 3.61-10.83-13.236-16.846-27.676-19.253-44.522v0zM724.381 777.325c1.203-4.813 2.407-9.626 3.61-13.236 4.813 6.016 9.626 8.423 16.846 9.626-10.83 6.016-16.846 7.22-20.456 3.61v0zM811.018 465.673c14.439 77.011-24.066 68.588-46.928 66.181 21.659-3.61 39.709-12.033 38.505-34.895-9.626 7.22-26.472 8.423-37.302 8.423 27.676-10.83 39.709-32.489 45.725-39.709v0zM809.814 542.684c1.203 68.588-40.912 51.741-55.351 37.302 20.456 7.22 37.302 3.61 38.505-15.643-16.846 1.203-27.676-6.016-34.895-13.236 31.286 8.423 45.725-2.407 51.741-8.423v0zM794.172 611.271c-19.253 48.132-40.912 34.895-52.945 18.049 0-2.407 0-3.61 0-6.016 13.236 10.83 25.269 12.033 30.082 1.203-15.643-7.22-21.659-19.253-24.066-28.879 21.659 20.456 38.505 16.846 46.928 15.643v0zM765.293 659.403c-9.626 14.439-18.049 21.659-24.066 25.269 1.203-9.626 1.203-20.456 1.203-30.082 8.423 6.016 16.846 4.813 22.863 4.813v0zM755.666 530.651c-1.203 50.538-25.269 40.912-38.505 34.895 13.236 1.203 26.472-1.203 26.472-16.846-8.423 2.407-15.643 1.203-22.863 0 19.253-2.407 30.082-14.439 34.895-18.049v0zM747.243 579.986c-2.407 8.423-4.813 14.439-7.22 19.253v-3.61l-7.22-2.407c0-1.203 0-1.203 1.203-2.407-10.83-2.407-15.643-8.423-19.253-14.439 16.846 10.83 27.676 6.016 32.489 3.61v0zM839.897 245.471c20.456 38.505 24.066 115.516-21.659 169.664 10.83-14.439 26.472-64.978 20.456-105.89 6.016-18.049 8.423-40.912 1.203-63.774v0zM890.435 459.657c-7.22 33.692-25.269 54.148-57.758 55.351 13.236-6.016 24.066-12.033 30.082-21.659-8.423 1.203-18.049 1.203-27.676-2.407 24.066-3.61 42.115-15.643 55.351-31.286v0zM847.116 592.019c-8.423 7.22-19.253 8.423-30.082 3.61 3.61 0 7.22-1.203 9.626-3.61-2.407-2.407-3.61-6.016-3.61-8.423 6.016 6.016 14.439 8.423 24.066 8.423v0zM801.391 667.826c-8.423 1.203-18.049 2.407-25.269-6.016 3.61 1.203 6.016 1.203 8.423 0-1.203-3.61-1.203-7.22 0-10.83 1.203 7.22 8.423 13.236 16.846 16.846v0zM754.463 720.771c-6.016-1.203-12.033-3.61-15.643-8.423 0-1.203 0-2.407 0-4.813 1.203 0 2.407 1.203 3.61 0 0-2.407 2.407-7.22 4.813-9.626-1.203 8.423 1.203 16.846 7.22 22.863v0zM512.602 330.905c16.846 8.423 28.879 1.203 38.505 6.016 7.22 3.61 10.83 18.049 1.203 20.456 0-7.22-6.016-6.016-9.626-6.016s-7.22-3.61-7.22-7.22c0-1.203 0-2.407 1.203-3.61-8.423 0-18.049-1.203-24.066-9.626v0zM444.014 327.295c-1.203 12.033 3.61 21.659 14.439 27.676-2.407-4.813-3.61-9.626-4.813-15.643 18.049 2.407 37.302-1.203 52.945-8.423-24.066 6.016-44.522 3.61-62.571-3.61v0zM650.98 761.683c9.626 4.813 19.253 4.813 28.879 2.407s18.049-7.22 24.066-15.643c8.423-9.626 10.83-21.659 9.626-32.489-1.203-8.423-4.813-18.049-10.83-25.269 2.407-4.813 3.61-9.626 4.813-15.643 1.203-9.626 1.203-19.253-2.407-27.676s-8.423-15.643-15.643-22.863c-7.22-6.016-16.846-9.626-25.269-12.033-9.626-1.203-19.253 0-27.676 2.407-6.016 2.407-12.033 6.016-16.846 9.626-8.423-4.813-16.846-6.016-25.269-4.813-10.83 1.203-22.863 6.016-30.082 15.643-6.016 7.22-9.626 16.846-10.83 26.472 0 9.626 2.407 19.253 8.423 27.676 2.407 4.813 8.423 4.813 13.236 2.407s4.813-8.423 2.407-13.236c-3.61-4.813-4.813-10.83-4.813-15.643 0-6.016 2.407-10.83 6.016-15.643 4.813-6.016 10.83-8.423 18.049-9.626 3.61 0 8.423 0 12.033 1.203-2.407 4.813-4.813 10.83-6.016 15.643s2.407 9.626 7.22 10.83c4.813 1.203 9.626-2.407 10.83-7.22 1.203-6.016 3.61-12.033 7.22-15.643 3.61-4.813 9.626-8.423 14.439-10.83 6.016-2.407 12.033-2.407 18.049-1.203s10.83 3.61 15.643 7.22c4.813 3.61 8.423 9.626 10.83 14.439 2.407 6.016 2.407 12.033 1.203 18.049s-3.61 12.033-7.22 16.846c-3.61 4.813-8.423 8.423-14.439 9.626-4.813 1.203-7.22 7.22-6.016 12.033s7.22 7.22 12.033 6.016c7.22-2.407 12.033-6.016 16.846-10.83 2.407 3.61 3.61 7.22 3.61 10.83 1.203 7.22-1.203 13.236-6.016 19.253-3.61 4.813-8.423 7.22-14.439 8.423s-10.83 1.203-16.846-1.203c-4.813-2.407-10.83 0-12.033 4.813 0 8.423 2.407 14.439 7.22 15.643v0zM641.354 780.935c0 3.61 0 6.016 0 9.626v3.61l-27.676 12.033-1.203 3.61c-1.203 3.61-2.407 7.22-3.61 10.83s-3.61 7.22-4.813 10.83l-2.407 3.61 10.83 27.676c-2.407 3.61-6.016 7.22-8.423 9.626-3.61 3.61-6.016 6.016-9.626 8.423l-27.676-10.83-3.61 2.407c-3.61 1.203-7.22 3.61-10.83 4.813s-7.22 2.407-10.83 3.61l-4.813 1.203-12.033 27.676h-3.61c-2.407 0-6.016 0-9.626 0s-6.016 0-9.626 0h-3.61l-12.033-27.676-4.813-1.203c-3.61-1.203-7.22-2.407-10.83-3.61s-7.22-3.61-10.83-4.813l-3.61-2.407-27.676 10.83c-3.61-2.407-7.22-6.016-9.626-8.423-3.61-3.61-6.016-6.016-8.423-9.626l10.83-27.676-1.203-2.407c-1.203-3.61-3.61-7.22-4.813-10.83s-2.407-7.22-3.61-10.83l-1.203-4.813-27.676-12.033v-3.61c0-2.407 0-6.016 0-9.626 0-4.813-4.813-9.626-9.626-9.626s-9.626 4.813-9.626 9.626c0 3.61 0 7.22 0 10.83s1.203 7.22 1.203 10.83l1.203 4.813 28.879 13.236c1.203 2.407 2.407 6.016 3.61 8.423s2.407 6.016 3.61 8.423l-12.033 28.879 3.61 4.813c4.813 6.016 8.423 10.83 14.439 15.643 4.813 4.813 10.83 9.626 15.643 14.439l3.61 3.61 30.082-12.033c2.407 1.203 6.016 2.407 8.423 3.61s6.016 2.407 8.423 3.61l12.033 28.879 4.813 1.203c3.61 0 7.22 1.203 10.83 1.203s7.22 0 10.83 0c3.61 0 7.22 0 10.83 0s7.22-1.203 10.83-1.203l4.813-1.203 13.236-28.879c2.407-1.203 6.016-2.407 8.423-3.61s6.016-2.407 8.423-3.61l28.879 12.033 4.813-3.61c6.016-4.813 10.83-8.423 15.643-14.439 4.813-4.813 9.626-10.83 14.439-15.643l3.61-3.61-12.033-30.082c1.203-2.407 2.407-6.016 3.61-8.423s2.407-6.016 3.61-8.423l28.879-12.033 1.203-4.813c0-3.61 1.203-7.22 1.203-10.83s0-7.22 0-10.83c0-4.813-4.813-9.626-9.626-9.626-7.22 0-12.033 3.61-12.033 8.423v0zM381.443 683.469c15.643-52.945-22.863-49.335-34.895-73.401 10.83 25.269-16.846 51.741 34.895 73.401v0zM620.898 696.705c-3.61 4.813-7.22 9.626-9.626 13.236-1.203 2.407-3.61 4.813-4.813 6.016-3.61-2.407-6.016-3.61-9.626-6.016-6.016-2.407-13.236-4.813-20.456-6.016-4.813-1.203-9.626 2.407-10.83 7.22s2.407 9.626 7.22 10.83c4.813 1.203 10.83 2.407 15.643 4.813 2.407 1.203 3.61 2.407 6.016 3.61-16.846 19.253-36.099 37.302-57.758 52.945-8.423 7.22-18.049 13.236-27.676 19.253-2.407-1.203-4.813-3.61-7.22-4.813-4.813-2.407-9.626-2.407-13.236 2.407-2.407 4.813-2.407 9.626 2.407 13.236-9.626 6.016-20.456 10.83-31.286 15.643-4.813 2.407-7.22 7.22-4.813 12.033s7.22 7.22 12.033 4.813c14.439-6.016 27.676-13.236 40.912-20.456 4.813 2.407 9.626 6.016 14.439 8.423 10.83 6.016 21.659 12.033 33.692 16.846 4.813 2.407 10.83 0 12.033-4.813 2.407-4.813 0-10.83-4.813-12.033-10.83-4.813-21.659-9.626-32.489-15.643-1.203-1.203-3.61-2.407-4.813-2.407 7.22-4.813 14.439-9.626 21.659-14.439 21.659-16.846 42.115-36.099 60.165-56.555 1.203 1.203 2.407 3.61 4.813 4.813 3.61 4.813 6.016 9.626 7.22 14.439s7.22 7.22 12.033 6.016c4.813-1.203 7.22-7.22 6.016-12.033-2.407-6.016-6.016-13.236-9.626-18.049-2.407-3.61-4.813-6.016-7.22-9.626 2.407-2.407 3.61-4.813 6.016-7.22 3.61-4.813 7.22-9.626 10.83-14.439 2.407-4.813 2.407-9.626-2.407-13.236s-10.83-3.61-14.439 1.203v0zM489.739 740.024c22.863 34.895-4.813 38.505-7.22 57.758-15.643-33.692 4.813-38.505 7.22-57.758v0zM409.119 790.562c36.099 33.692 45.725 2.407 68.588 3.61-34.895-25.269-45.725-2.407-68.588-3.61v0zM377.833 754.463c32.489 43.318 48.132 12.033 72.197 18.049-32.489-34.895-48.132-12.033-72.197-18.049v0zM445.217 694.298c-1.203 21.659-24.066 28.879-3.61 66.181 1.203-21.659 32.489-27.676 3.61-66.181v0zM428.371 663.013c-2.407 22.863-27.676 28.879-8.423 69.791 3.61-22.863 36.099-26.472 8.423-69.791v0zM353.767 719.568c27.676 46.928 46.928 16.846 70.994 25.269-30.082-37.302-48.132-16.846-70.994-25.269v0zM333.311 681.062c20.456 50.538 44.522 24.066 66.181 34.895-22.863-40.912-44.522-22.863-66.181-34.895v0zM403.102 634.134c-1.203 25.269-26.472 33.692-2.407 74.604 0-25.269 34.895-31.286 2.407-74.604v0zM470.486 714.754c-2.407 21.659-26.472 27.676-7.22 66.181 2.407-22.863 32.489-25.269 7.22-66.181v0zM474.096 652.183v46.928l52.945 52.945c3.61 3.61 9.626 3.61 13.236 0s3.61-9.626 0-13.236l-46.928-46.928v-86.637l30.082-30.082v-27.676c4.813-3.61 8.423-8.423 8.423-14.439 0-9.626-8.423-18.049-18.049-18.049s-18.049 8.423-18.049 18.049c0 6.016 3.61 12.033 8.423 14.439v20.456l-30.082 30.082v27.676l-21.659-21.659v-56.555c4.813-3.61 8.423-8.423 8.423-14.439 0-9.626-8.423-18.049-18.049-18.049s-18.049 8.423-18.049 18.049c0 6.016 3.61 12.033 8.423 14.439v64.978l40.912 39.709zM553.514 527.041c-3.61 0-6.016 2.407-6.016 6.016s2.407 6.016 6.016 6.016c3.61 0 6.016-2.407 6.016-6.016s-3.61-6.016-6.016-6.016v0zM512.602 527.041c-3.61 0-6.016 2.407-6.016 6.016s2.407 6.016 6.016 6.016c3.61 0 6.016-2.407 6.016-6.016s-2.407-6.016-6.016-6.016v0zM442.811 527.041c-3.61 0-6.016 2.407-6.016 6.016s2.407 6.016 6.016 6.016c3.61 0 6.016-2.407 6.016-6.016s-2.407-6.016-6.016-6.016z"></path><path data-v-67e5677b="" fill="#00588e" d="M511.398 1024c173.274-83.027 270.74-218.999 244.268-442.811-61.368-15.643-97.467-51.741-102.28-113.109-42.115-18.049-90.247-27.676-141.988-27.676s-99.873 8.423-141.988 27.676c-6.016 60.165-42.115 97.467-102.28 113.109-26.472 223.812 70.994 359.784 244.268 442.811v0zM397.086 488.536c36.099-13.236 75.807-19.253 115.516-19.253 38.505 0 78.214 6.016 115.516 19.253 10.83 57.758 48.132 95.060 102.28 114.313 15.643 181.697-55.351 306.839-216.592 388.663-161.241-81.824-233.438-206.966-216.592-388.663 51.741-19.253 89.043-56.555 99.873-114.313z"></path></svg><style>@media (prefers-color-scheme: light) { :root { filter: none; } }
@media (prefers-color-scheme: dark) { :root { filter: none; } }
</style></svg>