<svg width="180" height="67" viewBox="0 0 180 67" fill="none" xmlns="http://www.w3.org/2000/svg">
<path d="M60 54.5594L53.1801 33.5632H59.0804L63.1417 48.046L67.2797 33.5632H73.1801L66.3601 54.5594H60ZM85.5172 54.5594L84.5211 51.4943H77.3946L76.4751 54.5594H70.6513L77.318 33.5632H84.0613L91.0345 54.5594H85.5172ZM78.7739 46.8966H82.9885L80.8429 39.7701L78.7739 46.8966ZM97.7011 49.3487H105.364V54.5594H90.7279V50.4215L98.1609 38.774H90.8812V33.5632H105.134V37.7012L97.7011 49.3487ZM124.981 54.5594L121.303 47.7395H119.387V54.5594H114.023V33.5632H122.452C124.598 33.5632 126.36 34.2529 127.816 35.6322C129.272 37.0115 129.962 38.774 129.962 40.8429C129.962 42.069 129.655 43.295 128.965 44.2912C128.352 45.364 127.433 46.2069 126.36 46.8199L130.651 54.5594H124.981ZM119.464 38.4674V43.1418H122.452C123.142 43.1418 123.678 42.9885 124.061 42.5287C124.444 42.069 124.674 41.5326 124.674 40.8429C124.674 40.1533 124.444 39.5402 124.061 39.1571C123.678 38.6973 123.065 38.4674 122.452 38.4674H119.464ZM136.858 49.3487H144.061V54.5594H131.418V33.5632H136.782C136.858 33.5632 136.858 49.3487 136.858 49.3487ZM173.257 42.5287V44.6743C173.257 47.7395 172.261 50.2682 170.345 52.1839C168.429 54.0996 165.9 55.0192 162.835 55.0192C159.54 55.0192 156.858 53.9464 154.713 51.8774C152.567 49.8084 151.571 47.2031 151.571 44.1379C151.571 41.0728 152.644 38.4674 154.713 36.3218C156.782 34.1763 159.387 33.1035 162.529 33.1035C164.521 33.1035 166.284 33.5632 167.893 34.4061C169.502 35.249 170.805 36.4751 171.724 37.931L167.126 40.5364C166.743 39.8468 166.054 39.3103 165.287 38.9272C164.444 38.5441 163.525 38.3142 162.529 38.3142C160.843 38.3142 159.54 38.8506 158.467 39.9234C157.395 40.9962 156.858 42.3755 156.858 44.0613C156.858 45.6705 157.395 47.0498 158.467 48.1992C159.54 49.3487 160.996 49.8851 162.912 49.8851C165.364 49.8851 166.973 48.9655 167.739 47.1264H162.605V42.5287H173.257ZM106.513 33.5632H111.877V54.5594H106.513V33.5632ZM144.904 33.5632H150.268V54.5594H144.904V33.5632ZM174.636 33.5632H180V54.5594H174.636V33.5632Z" fill="#2B4181"/>
<path d="M68.8123 17.7779C70.6514 18.8507 71.6475 20.5365 71.6475 22.8354C71.6475 24.8277 70.9579 26.4369 69.5786 27.5863C68.1993 28.8124 66.3602 29.3488 64.138 29.3488H54.636V6.9733H63.4483C65.6705 6.9733 67.5096 7.5097 68.8123 8.65912C70.1916 9.80855 70.8046 11.3411 70.8046 13.3335C70.8813 15.1725 70.1916 16.7051 68.8123 17.7779ZM63.295 12.1074H60.3832V15.6323H63.295C63.8314 15.6323 64.2146 15.479 64.5977 15.1725C64.9809 14.866 65.1341 14.4062 65.1341 13.8698C65.1341 13.3335 64.9809 12.8737 64.5977 12.5672C64.2912 12.2607 63.8314 12.1074 63.295 12.1074ZM63.9081 24.2147C64.5211 24.2147 64.9809 24.0614 65.2874 23.6783C65.6705 23.2951 65.8238 22.8354 65.8238 22.299C65.8238 21.6859 65.6705 21.2262 65.2874 20.9197C64.9042 20.6131 64.4445 20.3833 63.9081 20.3833H60.3832V24.138L63.9081 24.2147ZM87.2797 29.3488L86.2069 26.1304H78.6207L77.6246 29.3488H71.4177L78.5441 6.9733H85.7472L93.1801 29.3488H87.2797ZM80 21.2262H84.5211L82.2223 13.64L80 21.2262ZM106.513 6.9733H112.184V29.3488H107.739L99.8468 18.0844V29.3488H94.0996V6.9733H98.5441L106.513 18.2377V6.9733ZM124.291 6.9733C127.356 6.9733 129.962 8.04609 132.031 10.1917C134.1 12.3373 135.172 15.0193 135.172 18.161C135.172 21.3028 134.1 23.9848 132.031 26.1304C129.962 28.276 127.356 29.3488 124.291 29.3488H115.172V6.9733H124.291ZM124.291 23.8315C125.824 23.8315 127.126 23.2951 128.123 22.299C129.119 21.2262 129.579 19.9235 129.579 18.161C129.579 16.3986 129.119 15.0959 128.123 14.0231C127.126 12.9503 125.9 12.4905 124.291 12.4905H121.073V23.8315H124.291ZM142.989 23.8315H150.728V29.3488H137.318V6.9733H143.065L142.989 23.8315ZM179.387 29.3488H172.95L166.513 19.3105V29.3488H160.766V6.9733H166.513V16.3986L172.644 6.9733H179.08L171.954 17.8545L179.387 29.3488ZM152.184 6.9733H157.931V29.3488H152.184V6.9733Z" fill="#019FFF"/>
<path d="M3.60153 65.9005H2.91188L0.536398 63.3718V65.9005H0V60.7664H0.536398V63.1419L2.83525 60.7664H3.5249L1.0728 63.2952C1.0728 63.2952 3.60153 65.9005 3.60153 65.9005ZM7.73946 65.9005L7.27969 64.6745H4.82759L4.36782 65.9005H3.83142L5.82376 60.7664H6.36015L8.35249 65.9005H7.73946ZM5.05747 64.1381H7.12644L6.05364 61.3794L5.05747 64.1381ZM13.6398 60.7664V65.9005H13.1034V61.5327L11.341 64.5212H11.2644L9.50192 61.5327V65.9005H8.96552V60.7664H9.57854L11.2644 63.6783L12.9502 60.7664H13.6398ZM17.7012 63.2185C17.931 63.2952 18.1609 63.525 18.3142 63.6783C18.4674 63.9082 18.5441 64.1381 18.5441 64.4446C18.5441 64.8277 18.3908 65.2109 18.1609 65.4407C17.8544 65.7473 17.5479 65.8239 17.1648 65.8239H14.9425V60.6898H17.0115C17.3946 60.6898 17.7012 60.843 18.0077 61.0729C18.3142 61.3794 18.3908 61.686 18.3908 62.0691C18.3142 62.6055 18.0843 62.9886 17.7012 63.2185ZM16.9349 61.2262H15.4023V62.9886H16.9349C17.1648 62.9886 17.3946 62.912 17.5479 62.7588C17.7012 62.6055 17.7778 62.3756 17.7778 62.1457C17.7778 61.9158 17.7012 61.686 17.5479 61.5327C17.318 61.3794 17.1648 61.2262 16.9349 61.2262ZM17.0881 65.4407C17.318 65.4407 17.5479 65.3641 17.7012 65.1342C17.8544 64.981 17.931 64.7511 17.931 64.4446C17.931 64.2147 17.8544 63.9848 17.7012 63.7549C17.5479 63.6017 17.318 63.4484 17.0881 63.4484H15.3257V65.3641C15.3257 65.4407 17.0881 65.4407 17.0881 65.4407ZM22.8352 65.9005L22.3755 64.6745H19.9234L19.387 65.9005H18.8506L20.8429 60.7664H21.3793L23.3716 65.9005H22.8352ZM20.0766 64.1381H22.1456L21.0728 61.3794L20.0766 64.1381ZM28.7356 63.4484V63.6783C28.7356 64.2913 28.5057 64.8277 28.046 65.2875C27.5862 65.7473 26.9732 65.9771 26.2069 65.9771C25.4406 65.9771 24.751 65.7473 24.2912 65.2109C23.7548 64.6745 23.5249 64.0614 23.5249 63.2952C23.5249 62.5289 23.7548 61.9158 24.2912 61.3794C24.8276 60.843 25.4406 60.6132 26.2069 60.6132C26.6667 60.6132 27.1264 60.7664 27.5096 60.9963C27.8927 61.2262 28.1992 61.5327 28.4291 61.9158L27.9694 62.1457C27.8161 61.8392 27.5862 61.6093 27.2797 61.3794C26.9732 61.2262 26.59 61.0729 26.2069 61.0729C25.5939 61.0729 25.0575 61.3028 24.5977 61.686C24.2146 62.0691 23.9847 62.6055 23.9847 63.2185C23.9847 63.8316 24.2146 64.3679 24.5977 64.7511C24.9808 65.1342 25.5172 65.3641 26.2069 65.3641C26.8199 65.3641 27.2797 65.2109 27.5862 64.9043C27.9694 64.5978 28.1226 64.2147 28.1992 63.7549H26.1303V63.2952L28.7356 63.4484ZM29.4253 62.4522L29.8851 60.7664H30.3448L30.0383 62.4522H29.4253ZM34.1762 65.9005L33.7165 64.6745H31.2644L30.728 65.9005H30.1916L32.1839 60.7664H32.7203L34.7126 65.9005H34.1762ZM31.4176 64.1381H33.4866L32.4138 61.3794L31.4176 64.1381ZM35.8621 65.4407H38.2376V65.9005H35.4023V60.7664H35.9387L35.8621 65.4407ZM39.4636 65.4407H41.8391V65.9005H39.0038V60.7664H39.5402L39.4636 65.4407ZM42.5287 60.7664H43.0651V65.9005H42.5287V60.7664ZM47.8161 65.9005H47.1264L44.751 63.3718V65.9005H44.2146V60.7664H44.751V63.1419L47.0498 60.7664H47.7395L45.2874 63.2952C45.2874 63.2952 47.8161 65.9005 47.8161 65.9005ZM51.8008 60.7664H52.3372V65.9005H51.8774L49.0421 61.7626V65.9005H48.5057V60.7664H48.9655L51.8008 64.9043V60.7664ZM53.4866 60.7664H54.023V65.9005H53.4866V60.7664ZM61.2261 61.4561C61.7625 61.9925 61.9923 62.6055 61.9923 63.3718C61.9923 64.1381 61.7625 64.7511 61.2261 65.2109L61.8391 65.8239L61.4559 66.1304L60.8429 65.5174C60.3831 65.8239 59.8467 65.9771 59.3103 65.9771C58.5441 65.9771 57.931 65.7473 57.3946 65.2109C56.8582 64.6745 56.6284 64.0614 56.6284 63.2952C56.6284 62.5289 56.8582 61.9158 57.3946 61.3794C57.931 60.843 58.5441 60.6132 59.3103 60.6132C60.1533 60.6898 60.7663 60.9197 61.2261 61.4561ZM59.387 65.5174C59.7701 65.5174 60.1533 65.4407 60.5364 65.2109L59.387 64.1381L59.7701 63.8316L60.9195 64.981C61.3027 64.5212 61.5326 64.0614 61.5326 63.4484C61.5326 62.8354 61.3027 62.3756 60.9195 61.9158C60.5364 61.5327 60 61.3028 59.387 61.3028C58.7739 61.3028 58.3142 61.5327 57.8544 61.9158C57.4713 62.299 57.2414 62.8354 57.2414 63.4484C57.2414 64.0614 57.4713 64.5212 57.8544 64.981C58.3142 65.2875 58.7739 65.5174 59.387 65.5174ZM62.9885 60.7664H63.5249V65.9005H62.9885V60.7664ZM66.2069 65.9771C65.7471 65.9771 65.364 65.9005 64.9808 65.6706C64.6743 65.4407 64.4444 65.1342 64.2912 64.7511L64.751 64.5212C64.8276 64.8277 64.9808 65.0576 65.2874 65.2875C65.5172 65.4407 65.8238 65.5174 66.2835 65.5174C66.6667 65.5174 66.9732 65.4407 67.2031 65.2875C67.433 65.1342 67.5096 64.9044 67.5096 64.5978C67.5096 64.2913 67.433 64.1381 67.2031 63.9848C66.9732 63.8316 66.6667 63.6783 66.2069 63.525C65.6705 63.3718 65.2874 63.2185 65.1341 63.0653C64.751 62.8354 64.5211 62.4522 64.5211 62.0691C64.5211 61.6093 64.6743 61.3028 64.9808 61.0729C65.2874 60.843 65.6705 60.6898 66.1303 60.6898C66.5134 60.6898 66.8966 60.7664 67.2031 60.9963C67.5096 61.2262 67.7395 61.4561 67.8927 61.7626L67.3563 62.0691C67.1264 61.5327 66.6667 61.2262 66.1303 61.2262C65.8238 61.2262 65.5172 61.3028 65.364 61.4561C65.1341 61.6093 65.0575 61.8392 65.0575 62.1457C65.0575 62.3756 65.1341 62.6055 65.2874 62.6821C65.4406 62.7588 65.7471 62.912 66.1303 63.0653C66.2835 63.1419 66.4368 63.1419 66.5134 63.2185C66.59 63.2185 66.7433 63.2952 66.8966 63.3718C67.0498 63.4484 67.1264 63.525 67.2031 63.525C67.2797 63.6017 67.3563 63.6017 67.433 63.6783C67.5096 63.7549 67.5862 63.8316 67.6628 63.9082C67.7395 63.9848 67.7395 64.0614 67.8161 64.2147C67.8161 64.368 67.8927 64.4446 67.8927 64.5978C67.8927 65.0576 67.7395 65.3641 67.433 65.6706C67.1264 65.9005 66.7433 65.9771 66.2069 65.9771ZM73.0268 61.4561C73.5632 61.9925 73.7931 62.6055 73.7931 63.3718C73.7931 64.1381 73.5632 64.7511 73.0268 65.2109L73.6399 65.8239L73.2567 66.1304L72.6437 65.5174C72.1839 65.8239 71.6475 65.9771 71.1111 65.9771C70.3448 65.9771 69.7318 65.7473 69.1954 65.2109C68.659 64.6745 68.4291 64.0614 68.4291 63.2952C68.4291 62.5289 68.659 61.9158 69.1954 61.3794C69.7318 60.843 70.3448 60.6132 71.1111 60.6132C71.8774 60.6898 72.4904 60.9197 73.0268 61.4561ZM71.1111 65.5174C71.4943 65.5174 71.8774 65.4407 72.2605 65.2109L71.1111 64.1381L71.4943 63.8316L72.6437 64.981C73.0268 64.5212 73.2567 64.0614 73.2567 63.4484C73.2567 62.8354 73.0268 62.3756 72.6437 61.9158C72.2605 61.5327 71.7241 61.3028 71.1111 61.3028C70.4981 61.3028 70.0383 61.5327 69.5786 61.9158C69.1954 62.299 68.9655 62.8354 68.9655 63.4484C68.9655 64.0614 69.1954 64.5212 69.5786 64.981C70.0383 65.2875 70.5747 65.5174 71.1111 65.5174ZM77.931 65.9005L77.4713 64.6745H75.0192L74.5594 65.9005H74.023L76.0153 60.7664H76.5517L78.5441 65.9005H77.931ZM75.249 64.1381H77.318L76.2452 61.3794L75.249 64.1381ZM82.2989 65.9005L81.0728 63.8316H79.6935V65.9005H79.1571V60.7664H81.2261C81.6858 60.7664 81.9923 60.9197 82.2989 61.2262C82.6054 61.5327 82.7586 61.9158 82.7586 62.299C82.7586 62.6821 82.682 62.9886 82.4521 63.2185C82.2222 63.525 81.9923 63.6783 81.6858 63.7549L82.9119 65.9005H82.2989ZM79.6935 61.2262V63.3718H81.2261C81.5326 63.3718 81.7625 63.2952 81.9157 63.0653C82.1456 62.8354 82.2222 62.6055 82.2222 62.299C82.2222 61.9925 82.1456 61.7626 81.9157 61.5327C81.6858 61.3028 81.4559 61.2262 81.2261 61.2262C81.2261 61.2262 79.6935 61.2262 79.6935 61.2262ZM86.7433 60.7664V61.2262H85.1341V65.9005H84.5977V61.2262H82.9885V60.7664H86.7433ZM87.5096 60.7664H88.046V65.9005H87.5096V60.7664ZM92.3372 65.9005L91.1111 63.8316H89.6552V65.9005H89.1188V60.7664H91.1877C91.6475 60.7664 91.954 60.9197 92.2605 61.2262C92.5671 61.5327 92.7203 61.9158 92.7203 62.299C92.7203 62.6821 92.6437 62.9886 92.4138 63.2185C92.1839 63.525 91.954 63.6783 91.6475 63.7549L92.8736 65.9005H92.3372ZM89.6552 61.2262V63.3718H91.1877C91.4943 63.3718 91.7241 63.2952 91.8774 63.0653C92.1073 62.8354 92.1839 62.6055 92.1839 62.299C92.1839 61.9925 92.1073 61.7626 91.8774 61.5327C91.6475 61.3028 91.4176 61.2262 91.1877 61.2262C91.2644 61.2262 89.6552 61.2262 89.6552 61.2262ZM93.6399 60.7664H94.1763V65.9005H93.6399V60.7664ZM96.8582 65.9771C96.3985 65.9771 96.0153 65.9005 95.6322 65.6706C95.3257 65.4407 95.0958 65.1342 94.9425 64.7511L95.4023 64.5212C95.4789 64.8277 95.6322 65.0576 95.9387 65.2875C96.1686 65.4407 96.4751 65.5174 96.9349 65.5174C97.318 65.5174 97.6245 65.4407 97.8544 65.2875C98.0843 65.1342 98.1609 64.9044 98.1609 64.5978C98.1609 64.2913 98.0843 64.1381 97.8544 63.9848C97.6245 63.8316 97.318 63.6783 96.8582 63.525C96.3218 63.3718 95.9387 63.2185 95.7854 63.0653C95.4023 62.8354 95.1724 62.4522 95.1724 62.0691C95.1724 61.6093 95.3257 61.3028 95.6322 61.0729C95.9387 60.843 96.3218 60.6898 96.7816 60.6898C97.1648 60.6898 97.5479 60.7664 97.8544 60.9963C98.1609 61.2262 98.3908 61.4561 98.5441 61.7626L98.0843 61.9925C97.8544 61.4561 97.3946 61.1496 96.8582 61.1496C96.5517 61.1496 96.2452 61.2262 96.092 61.3794C95.8621 61.5327 95.7854 61.7626 95.7854 62.0691C95.7854 62.299 95.8621 62.5289 96.0153 62.6055C96.1686 62.6821 96.4751 62.8354 96.8582 62.9886C97.0115 63.0653 97.1648 63.0653 97.2414 63.1419C97.318 63.1419 97.4713 63.2185 97.6245 63.2952C97.7778 63.3718 97.8544 63.4484 97.931 63.4484C98.0077 63.525 98.0843 63.525 98.1609 63.6017C98.2376 63.6783 98.3142 63.7549 98.3908 63.8316C98.4674 63.9082 98.4674 63.9848 98.5441 64.1381C98.5441 64.2913 98.6207 64.3679 98.6207 64.5212C98.6207 64.981 98.4674 65.2875 98.1609 65.594C97.8544 65.9005 97.3946 65.9771 96.8582 65.9771ZM102.759 60.7664H103.295V65.9005H102.759V63.525H100V65.9005H99.4636V60.7664H100V62.9886H102.759V60.7664ZM109.502 65.9005L107.586 60.7664H108.123L109.732 65.2109L111.341 60.7664H111.877L109.962 65.9005H109.502ZM115.709 65.9005L115.249 64.6745H112.797L112.337 65.9005H111.801L113.793 60.7664H114.33L116.322 65.9005H115.709ZM113.027 64.1381H115.096L114.023 61.3794L113.027 64.1381ZM121.609 63.2185C121.839 63.2952 122.069 63.525 122.222 63.6783C122.375 63.9082 122.452 64.1381 122.452 64.4446C122.452 64.8277 122.299 65.2109 122.069 65.4407C121.762 65.7473 121.456 65.8239 121.073 65.8239H118.774V60.6898H120.843C121.226 60.6898 121.533 60.843 121.839 61.0729C122.146 61.3794 122.222 61.686 122.222 62.0691C122.222 62.6055 121.992 62.9886 121.609 63.2185ZM120.843 61.2262H119.31V62.9886H120.843C121.073 62.9886 121.303 62.912 121.456 62.7588C121.609 62.6055 121.686 62.3756 121.686 62.1457C121.686 61.9158 121.609 61.686 121.456 61.5327C121.303 61.3794 121.073 61.2262 120.843 61.2262ZM120.996 65.4407C121.226 65.4407 121.456 65.3641 121.609 65.1342C121.762 64.981 121.839 64.7511 121.839 64.4446C121.839 64.2147 121.762 63.9848 121.609 63.7549C121.456 63.6017 121.226 63.4484 120.996 63.4484H119.234V65.3641C119.31 65.4407 120.996 65.4407 120.996 65.4407ZM126.743 65.9005L126.284 64.6745H123.831L123.372 65.9005H122.835L124.828 60.7664H125.364L127.356 65.9005H126.743ZM123.985 64.1381H126.054L124.981 61.3794L123.985 64.1381ZM131.264 60.7664H131.801V65.9005H131.341L128.506 61.686V65.9005H127.969V60.7664H128.429L131.264 64.9043V60.7664ZM134.943 60.7664C135.632 60.7664 136.245 60.9963 136.705 61.5327C137.165 62.0691 137.395 62.6055 137.395 63.3718C137.395 64.0614 137.165 64.6745 136.705 65.2109C136.245 65.7473 135.632 65.9771 134.943 65.9771H132.95V60.843L134.943 60.7664ZM134.943 65.4407C135.479 65.4407 135.939 65.2109 136.322 64.8277C136.705 64.4446 136.858 63.9082 136.858 63.3718C136.858 62.7588 136.705 62.299 136.322 61.9158C135.939 61.5327 135.479 61.3028 134.943 61.3028H133.487V65.4407H134.943ZM138.774 65.4407H141.149V65.9005H138.314V60.7664H138.851L138.774 65.4407ZM141.839 60.7664H142.375V65.9005H141.839V60.7664ZM147.126 65.9005H146.437L144.061 63.3718V65.9005H143.525V60.7664H144.061V63.1419L146.36 60.7664H147.05L144.598 63.2952C144.598 63.2952 147.126 65.9005 147.126 65.9005ZM150.958 65.9005L149.042 60.7664H149.579L151.188 65.2109L152.797 60.7664H153.333L151.418 65.9005H150.958ZM157.165 65.9005L156.705 64.6745H154.253L153.793 65.9005H153.257L155.249 60.7664H155.785L157.778 65.9005H157.165ZM154.483 64.1381H156.552L155.479 61.3794L154.483 64.1381ZM158.697 65.4407H161.456V65.9005H158.161V65.4407L160.843 61.3028H158.238V60.843H161.379V61.3028L158.697 65.4407ZM162.222 60.7664H162.759V65.9005H162.222V60.7664ZM167.05 65.9005L165.824 63.8316H164.368V65.9005H163.831V60.7664H165.9C166.36 60.7664 166.667 60.9197 166.973 61.2262C167.28 61.5327 167.433 61.9158 167.433 62.299C167.433 62.6821 167.356 62.9886 167.126 63.2185C166.897 63.525 166.667 63.6783 166.36 63.7549L167.586 65.9005H167.05ZM164.444 61.2262V63.3718H165.977C166.284 63.3718 166.513 63.2952 166.667 63.0653C166.897 62.8354 166.973 62.6055 166.973 62.299C166.973 61.9925 166.897 61.7626 166.667 61.5327C166.437 61.3028 166.207 61.2262 165.977 61.2262C165.977 61.2262 164.444 61.2262 164.444 61.2262ZM168.889 65.4407H171.264V65.9005H168.429V60.7664H168.966L168.889 65.4407ZM171.954 60.7664H172.49V65.9005H171.954V60.7664ZM178.621 63.4484V63.6783C178.621 64.2913 178.391 64.8277 177.931 65.2875C177.471 65.7473 176.858 65.9771 176.092 65.9771C175.326 65.9771 174.636 65.7473 174.176 65.2109C173.64 64.6745 173.41 64.0614 173.41 63.2952C173.41 62.5289 173.64 61.9158 174.176 61.3794C174.713 60.843 175.326 60.6132 176.092 60.6132C176.552 60.6132 177.012 60.7664 177.395 60.9963C177.778 61.2262 178.084 61.5327 178.314 61.9158L177.854 62.1457C177.701 61.8392 177.471 61.6093 177.165 61.3794C176.858 61.2262 176.475 61.0729 176.092 61.0729C175.479 61.0729 174.943 61.3028 174.483 61.686C174.1 62.0691 173.87 62.6055 173.87 63.2185C173.87 63.8316 174.1 64.3679 174.483 64.7511C174.866 65.1342 175.402 65.3641 176.092 65.3641C176.705 65.3641 177.165 65.2109 177.471 64.9043C177.854 64.5978 178.008 64.2147 178.084 63.7549H176.015V63.2952L178.621 63.4484ZM179.464 60.7664H180V65.9005H179.464V60.7664Z" fill="black"/>
<path fill-rule="evenodd" clip-rule="evenodd" d="M46.5134 6.66667H35.4023V2.22222C35.4023 0.996169 34.4061 0 33.1801 0H15.4789C14.2529 0 13.2567 0.996169 13.2567 2.22222V6.66667H2.22222C0.996169 6.66667 0 7.66284 0 8.88889V19.0805C0 20 0.536398 20.7663 1.37931 21.1494L23.5249 30.0383C23.7548 30.1149 24.0613 30.1916 24.3678 30.1916C24.6743 30.1916 24.9042 30.1149 25.2107 30.0383L47.3563 21.1494C48.1992 20.8429 48.7356 20 48.7356 19.0805V8.88889C48.7356 7.66284 47.7395 6.66667 46.5134 6.66667ZM17.7012 4.0613H30.9579V6.66667H17.7012V4.0613Z" fill="url(#paint0_linear_4_5)"/>
<path d="M24.3678 41.3027C23.4483 41.3027 22.5287 41.1495 21.6858 40.7663L3.06513 33.3334C2.37548 33.0269 1.6092 33.1035 0.996169 33.5633C0.383142 34.023 0 34.6361 0 35.4023V52.4905C0 53.8698 1.0728 54.9426 2.45211 54.9426H46.2835C47.6628 54.9426 48.7356 53.8698 48.7356 52.4905V35.4023C48.7356 34.6361 48.3525 33.9464 47.7395 33.5633C47.1264 33.1035 46.3602 33.0269 45.6705 33.3334L27.1264 40.7663C26.2069 41.1495 25.2874 41.3027 24.3678 41.3027Z" fill="#243874"/>
<path fill-rule="evenodd" clip-rule="evenodd" d="M0 22.299V27.5097C0 28.4292 0.536398 29.1955 1.37931 29.5787L23.5249 38.4676C23.7548 38.5442 24.0613 38.6208 24.3678 38.6208C24.6743 38.6208 24.9042 38.5442 25.2107 38.4676L47.3563 29.5787C48.1992 29.2722 48.7356 28.4292 48.7356 27.5097V22.299C48.7356 23.2185 48.1992 23.9848 47.3563 24.3679L25.1341 33.1802C24.9042 33.2568 24.5977 33.3335 24.2912 33.3335C23.9847 33.3335 23.7548 33.2568 23.4483 33.1802L1.37931 24.3679C0.536398 23.9848 0 23.2185 0 22.299Z" fill="#00A550"/>
<defs>
<linearGradient id="paint0_linear_4_5" x1="21.9324" y1="6.4336" x2="32.327" y2="38.7106" gradientUnits="userSpaceOnUse">
<stop stop-color="#009FFF"/>
<stop offset="0.6118" stop-color="#3A59A8"/>
<stop offset="0.9294" stop-color="#009FFF"/>
<stop offset="0.9725" stop-color="#1C7BD3"/>
<stop offset="1" stop-color="#3856A6"/>
</linearGradient>
</defs>
</svg>
