<svg width="180" height="56" viewBox="0 0 180 56" fill="none" xmlns="http://www.w3.org/2000/svg">
<path d="M60 54.5594L53.1801 33.5632H59.0804L63.1417 48.046L67.2797 33.5632H73.1801L66.3601 54.5594H60ZM85.5172 54.5594L84.5211 51.4943H77.3946L76.4751 54.5594H70.6513L77.318 33.5632H84.0613L91.0345 54.5594H85.5172ZM78.7739 46.8966H82.9885L80.8429 39.7701L78.7739 46.8966ZM97.7011 49.3487H105.364V54.5594H90.7279V50.4215L98.1609 38.774H90.8812V33.5632H105.134V37.7012L97.7011 49.3487ZM124.981 54.5594L121.303 47.7395H119.387V54.5594H114.023V33.5632H122.452C124.598 33.5632 126.36 34.2529 127.816 35.6322C129.272 37.0115 129.962 38.774 129.962 40.8429C129.962 42.069 129.655 43.295 128.965 44.2912C128.352 45.364 127.433 46.2069 126.36 46.8199L130.651 54.5594H124.981ZM119.464 38.4674V43.1418H122.452C123.142 43.1418 123.678 42.9885 124.061 42.5287C124.444 42.069 124.674 41.5326 124.674 40.8429C124.674 40.1533 124.444 39.5402 124.061 39.1571C123.678 38.6973 123.065 38.4674 122.452 38.4674H119.464ZM136.858 49.3487H144.061V54.5594H131.418V33.5632H136.782C136.858 33.5632 136.858 49.3487 136.858 49.3487ZM173.257 42.5287V44.6743C173.257 47.7395 172.261 50.2682 170.345 52.1839C168.429 54.0996 165.9 55.0192 162.835 55.0192C159.54 55.0192 156.858 53.9464 154.713 51.8774C152.567 49.8084 151.571 47.2031 151.571 44.1379C151.571 41.0728 152.644 38.4674 154.713 36.3218C156.782 34.1763 159.387 33.1035 162.529 33.1035C164.521 33.1035 166.284 33.5632 167.893 34.4061C169.502 35.249 170.805 36.4751 171.724 37.931L167.126 40.5364C166.743 39.8468 166.054 39.3103 165.287 38.9272C164.444 38.5441 163.525 38.3142 162.529 38.3142C160.843 38.3142 159.54 38.8506 158.467 39.9234C157.395 40.9962 156.858 42.3755 156.858 44.0613C156.858 45.6705 157.395 47.0498 158.467 48.1992C159.54 49.3487 160.996 49.8851 162.912 49.8851C165.364 49.8851 166.973 48.9655 167.739 47.1264H162.605V42.5287H173.257ZM106.513 33.5632H111.877V54.5594H106.513V33.5632ZM144.904 33.5632H150.268V54.5594H144.904V33.5632ZM174.636 33.5632H180V54.5594H174.636V33.5632Z" fill="#2B4181"/>
<path d="M68.8123 17.7779C70.6514 18.8507 71.6475 20.5365 71.6475 22.8354C71.6475 24.8277 70.9579 26.4369 69.5786 27.5863C68.1993 28.8124 66.3602 29.3488 64.138 29.3488H54.636V6.9733H63.4483C65.6705 6.9733 67.5096 7.5097 68.8123 8.65912C70.1916 9.80855 70.8046 11.3411 70.8046 13.3335C70.8813 15.1725 70.1916 16.7051 68.8123 17.7779ZM63.295 12.1074H60.3832V15.6323H63.295C63.8314 15.6323 64.2146 15.479 64.5977 15.1725C64.9809 14.866 65.1341 14.4062 65.1341 13.8698C65.1341 13.3335 64.9809 12.8737 64.5977 12.5672C64.2912 12.2607 63.8314 12.1074 63.295 12.1074ZM63.9081 24.2147C64.5211 24.2147 64.9809 24.0614 65.2874 23.6783C65.6705 23.2951 65.8238 22.8354 65.8238 22.299C65.8238 21.6859 65.6705 21.2262 65.2874 20.9197C64.9042 20.6131 64.4445 20.3833 63.9081 20.3833H60.3832V24.138L63.9081 24.2147ZM87.2797 29.3488L86.2069 26.1304H78.6207L77.6246 29.3488H71.4177L78.5441 6.9733H85.7472L93.1801 29.3488H87.2797ZM80 21.2262H84.5211L82.2223 13.64L80 21.2262ZM106.513 6.9733H112.184V29.3488H107.739L99.8468 18.0844V29.3488H94.0996V6.9733H98.5441L106.513 18.2377V6.9733ZM124.291 6.9733C127.356 6.9733 129.962 8.04609 132.031 10.1917C134.1 12.3373 135.172 15.0193 135.172 18.161C135.172 21.3028 134.1 23.9848 132.031 26.1304C129.962 28.276 127.356 29.3488 124.291 29.3488H115.172V6.9733H124.291ZM124.291 23.8315C125.824 23.8315 127.126 23.2951 128.123 22.299C129.119 21.2262 129.579 19.9235 129.579 18.161C129.579 16.3986 129.119 15.0959 128.123 14.0231C127.126 12.9503 125.9 12.4905 124.291 12.4905H121.073V23.8315H124.291ZM142.989 23.8315H150.728V29.3488H137.318V6.9733H143.065L142.989 23.8315ZM179.387 29.3488H172.95L166.513 19.3105V29.3488H160.766V6.9733H166.513V16.3986L172.644 6.9733H179.08L171.954 17.8545L179.387 29.3488ZM152.184 6.9733H157.931V29.3488H152.184V6.9733Z" fill="#019FFF"/>
<path fill-rule="evenodd" clip-rule="evenodd" d="M46.5134 6.66667H35.4023V2.22222C35.4023 0.996169 34.4061 0 33.1801 0H15.4789C14.2529 0 13.2567 0.996169 13.2567 2.22222V6.66667H2.22222C0.996169 6.66667 0 7.66284 0 8.88889V19.0805C0 20 0.536398 20.7663 1.37931 21.1494L23.5249 30.0383C23.7548 30.1149 24.0613 30.1916 24.3678 30.1916C24.6743 30.1916 24.9042 30.1149 25.2107 30.0383L47.3563 21.1494C48.1992 20.8429 48.7356 20 48.7356 19.0805V8.88889C48.7356 7.66284 47.7395 6.66667 46.5134 6.66667ZM17.7012 4.0613H30.9579V6.66667H17.7012V4.0613Z" fill="url(#paint0_linear_4_47)"/>
<path d="M24.3678 41.3027C23.4483 41.3027 22.5287 41.1495 21.6858 40.7663L3.06513 33.3334C2.37548 33.0269 1.6092 33.1035 0.996169 33.5633C0.383142 34.023 0 34.6361 0 35.4023V52.4905C0 53.8698 1.0728 54.9426 2.45211 54.9426H46.2835C47.6628 54.9426 48.7356 53.8698 48.7356 52.4905V35.4023C48.7356 34.6361 48.3525 33.9464 47.7395 33.5633C47.1264 33.1035 46.3602 33.0269 45.6705 33.3334L27.1264 40.7663C26.2069 41.1495 25.2874 41.3027 24.3678 41.3027Z" fill="#243874"/>
<path fill-rule="evenodd" clip-rule="evenodd" d="M0 22.299V27.5097C0 28.4292 0.536398 29.1955 1.37931 29.5787L23.5249 38.4676C23.7548 38.5442 24.0613 38.6208 24.3678 38.6208C24.6743 38.6208 24.9042 38.5442 25.2107 38.4676L47.3563 29.5787C48.1992 29.2722 48.7356 28.4292 48.7356 27.5097V22.299C48.7356 23.2185 48.1992 23.9848 47.3563 24.3679L25.1341 33.1802C24.9042 33.2568 24.5977 33.3335 24.2912 33.3335C23.9847 33.3335 23.7548 33.2568 23.4483 33.1802L1.37931 24.3679C0.536398 23.9848 0 23.2185 0 22.299Z" fill="#00A550"/>
<defs>
<linearGradient id="paint0_linear_4_47" x1="21.9324" y1="6.4336" x2="32.327" y2="38.7106" gradientUnits="userSpaceOnUse">
<stop stop-color="#009FFF"/>
<stop offset="0.6118" stop-color="#3A59A8"/>
<stop offset="0.9294" stop-color="#009FFF"/>
<stop offset="0.9725" stop-color="#1C7BD3"/>
<stop offset="1" stop-color="#3856A6"/>
</linearGradient>
</defs>
</svg>
