<svg width="125" height="125" viewBox="0 0 125 125" fill="none" xmlns="http://www.w3.org/2000/svg">
<g clip-path="url(#clip0_1_3)">
<path d="M67.5676 62.8672C68.7427 62.8672 69.7709 63.8954 69.7709 65.0704C69.7709 65.8048 69.3302 66.5393 68.7427 66.833V71.974L65.0705 75.6461V82.6967C65.0705 83.2842 64.483 83.8717 63.8955 83.8717C63.308 83.8717 62.7204 83.2842 62.7204 82.6967V75.0586C62.7204 74.9117 62.7204 74.9117 62.7204 74.7648C62.7204 74.7648 62.7204 74.7648 62.8673 74.6179L66.0987 71.3865V67.1268C65.5112 66.6862 65.0705 66.0986 65.0705 65.3643C65.3644 63.7485 66.3926 62.8672 67.5676 62.8672ZM55.8166 0C50.5288 1.90955 45.3877 4.70032 41.2749 8.37256C36.7214 12.3385 33.0493 17.3326 30.6991 22.9143C29.2302 26.4396 28.202 30.1117 27.7613 33.9308C26.7331 44.3597 30.8459 53.4667 38.7778 60.2234C39.9529 61.2516 41.128 62.2798 42.1562 63.308C42.8906 64.1893 43.6251 64.9237 44.0658 66.0989C44.0658 66.0989 44.0658 66.2457 44.2126 66.2457C43.772 66.8333 43.3313 67.4208 42.8906 67.8615C42.8906 67.4208 42.7438 66.9801 42.5968 66.6864C42.303 65.8051 41.7154 65.2175 41.1279 64.4832C40.0997 63.455 38.9247 62.4268 37.7495 61.5454C29.3769 54.348 25.1173 44.8004 26.1455 33.7839C26.5862 29.818 27.6144 25.999 29.0832 22.3268C32.9023 13.6605 38.1902 7.63818 46.4158 3.08472C35.3993 6.60999 18.2136 17.4795 15.2759 32.7557C15.129 32.4619 14.6883 31.7275 14.3945 31.14C10.1349 40.6876 8.07848 55.8169 12.9256 63.6018C12.1913 63.308 11.6036 63.0143 11.3099 62.5736C12.485 68.3021 14.5414 78.2904 22.9139 78.1436C20.8575 78.5842 18.6543 78.5842 17.1854 78.2904C19.2418 81.9625 22.6202 87.1035 27.6144 86.8098C26.88 87.3973 25.2641 87.838 24.3829 87.9849C25.9986 89.7474 28.9364 93.2727 33.6367 92.6852C33.0492 93.2727 32.021 93.5665 30.699 93.7134C32.9022 95.476 35.2524 96.9448 37.7495 98.2668C38.0433 99.0012 38.4839 99.8826 38.7777 100.617C34.8118 98.7075 30.9928 96.2105 27.6144 93.2727C28.055 93.2727 28.3487 93.2727 28.6426 93.1259C24.9704 91.8038 23.2077 89.1599 21.592 87.2504C22.0327 87.2504 22.3264 87.2504 22.6202 87.1035C18.8011 85.194 16.1572 80.053 14.3946 76.8215C14.8353 76.9684 15.5697 76.9684 15.8635 76.8215C11.31 72.5619 9.84117 65.5114 8.95982 59.7827C9.25365 59.9296 9.4005 60.0765 9.54735 60.0765C7.6378 51.704 7.93163 40.5406 14.1008 28.2023C14.2477 28.4961 14.3946 28.6429 14.6883 28.7898C20.7107 12.4855 38.0432 1.46899 55.8164 0.00012207L55.8166 0ZM78.7309 116.627C77.8496 117.215 76.9684 117.802 76.6745 118.978C75.3525 119.712 74.3243 120.153 72.4149 120.447C74.3245 120.74 76.087 120.593 77.9966 120.153C77.8497 118.831 78.1434 117.509 78.7309 116.627ZM82.9906 111.34C82.9906 111.927 82.9906 112.662 82.9906 113.102C82.4031 113.543 81.228 113.984 80.1997 114.13C82.1092 114.424 83.8718 114.277 85.4875 113.543C84.4593 113.102 83.725 112.515 82.9905 111.34H82.9906ZM79.1715 115.599C82.1092 116.481 85.4875 116.481 88.7191 113.984C85.9282 112.368 83.5781 110.164 82.1092 107.374L83.4313 106.199C85.047 109.577 87.9847 112.074 91.6568 113.543C89.3066 116.481 85.4877 118.096 82.2561 117.803C81.081 119.125 80.6404 121.622 81.8154 123.237C75.7931 123.972 72.2678 125 68.155 121.769L68.4488 119.859C69.9177 120.887 70.9459 121.769 72.7085 122.062C73.8835 122.209 75.2056 122.209 76.3806 122.062C77.4088 121.915 78.2901 121.768 79.3183 121.768C79.1715 120.153 79.4652 118.39 80.4934 117.215C80.0527 116.627 79.4653 116.334 79.1715 115.599ZM46.269 116.627C47.1504 117.215 48.0316 117.802 48.3254 118.978C49.6474 119.712 50.6756 120.153 52.5851 120.447C50.6755 120.74 48.9129 120.593 47.0034 120.153C47.0034 118.831 46.7096 117.509 46.269 116.627ZM41.8625 111.34C41.8625 111.927 41.8625 112.662 41.8625 113.102C42.4501 113.543 43.6251 113.984 44.6534 114.13C42.7439 114.424 40.9813 114.277 39.3656 113.543C40.5406 113.102 41.1282 112.515 41.8627 111.34H41.8625ZM45.6815 115.599C42.7438 116.481 39.3655 116.481 36.1339 113.984C38.9248 112.368 41.2749 110.164 42.7438 107.374L41.4217 106.199C39.806 109.577 36.8683 112.074 33.1962 113.543C35.5464 116.481 39.3653 118.096 42.5969 117.803C43.772 119.125 44.2126 121.622 43.0376 123.237C49.0599 123.972 52.5852 125 56.698 121.769L56.4042 119.859C54.9353 120.887 53.9071 121.769 52.1445 122.062C50.9695 122.209 49.6474 122.209 48.4724 122.062C47.4442 121.915 46.5628 121.768 45.5347 121.768C45.6815 120.153 45.3878 118.39 44.3596 117.215C44.9471 116.627 45.3878 116.334 45.6816 115.599H45.6815ZM80.6404 66.2456C81.081 66.8331 81.5217 67.4207 81.9624 67.8613C81.9624 67.4207 82.1092 66.98 82.2562 66.6863C82.55 65.8049 83.1376 65.2174 83.7251 64.483C84.7533 63.4548 85.9283 62.4266 87.1035 61.5453C95.4761 54.3479 99.7357 44.8003 98.7075 33.7838C98.2668 29.8179 97.2386 25.9989 95.7698 22.3267C91.9507 13.5135 86.6628 7.49121 78.4372 2.93774C89.4537 6.46301 106.786 17.3325 109.724 32.6088C109.871 32.3149 110.312 31.5806 110.605 30.993C114.865 40.5406 116.775 55.8168 112.074 63.4548C112.809 63.161 113.396 62.8673 113.69 62.4266C112.515 68.1551 110.458 78.1434 102.086 77.9966C104.142 78.4373 106.346 78.4373 107.814 78.1434C105.758 81.8156 102.38 86.9565 97.3855 86.6628C98.1199 87.2504 99.7357 87.691 100.617 87.8379C99.0012 89.6005 96.0635 93.1257 91.3631 92.5382C91.9507 93.1257 92.9789 93.4196 94.3009 93.5664C92.0976 95.329 89.7474 96.7978 87.2504 98.1199C86.9565 98.8542 86.516 99.7356 86.2221 100.47C90.1881 98.5606 94.0071 96.0635 97.3855 93.1257C96.9448 93.1257 96.6511 93.1257 96.3573 92.9789C100.029 91.6569 101.792 89.0129 103.408 87.1034C102.967 87.1034 102.673 87.1034 102.38 86.9565C106.199 85.047 108.843 79.906 110.605 76.6746C110.165 76.8214 109.43 76.8214 109.136 76.6746C113.69 72.4149 115.159 65.3644 116.04 59.6357C115.746 59.7826 115.599 59.9296 115.452 59.9296C117.362 51.557 117.068 40.3937 110.899 28.0553C110.752 28.3491 110.605 28.496 110.312 28.6428C104.289 12.4854 86.9566 1.46887 69.0365 0C74.3243 1.90955 79.4654 4.70032 83.5782 8.37256C88.1317 12.3385 91.8038 17.3326 94.154 22.9143C95.6229 26.4396 96.6511 30.1117 97.0918 33.9308C98.12 44.3597 94.0072 53.4667 86.0753 60.2234C84.9003 61.2516 83.7251 62.2798 82.6969 63.308C81.9625 64.1893 81.228 64.9237 80.7873 66.0989C80.7873 66.0989 80.7873 66.0989 80.6405 66.2457L80.6404 66.2456ZM60.5171 54.0541C58.7545 53.4666 58.1669 51.7039 58.9014 49.7944C58.9014 51.1165 59.342 52.1447 60.3702 52.5853C61.3984 51.851 61.6922 50.8228 61.3984 49.5007C62.4266 51.4103 62.1328 53.3198 60.5171 54.0542V54.0541ZM73.2961 45.8285C72.4148 45.3878 71.5336 45.241 70.6522 45.241C70.2115 45.241 69.7709 44.9471 69.9178 44.0659C69.0365 46.1223 68.7428 47.2974 66.0987 46.7098C64.6299 46.416 63.8955 47.5912 64.1892 48.9131C64.336 49.6475 64.6299 50.8226 63.8954 51.557C63.6016 50.382 62.8672 49.7944 62.1328 49.3538C63.3078 51.2633 62.8672 52.4384 62.5735 53.0259C65.6581 52.4384 65.6581 54.9354 65.2174 56.1105C65.9518 56.1105 66.6863 56.2573 67.2738 56.2573C66.5394 53.7603 65.9518 51.2632 65.6581 48.6193C65.6581 48.1786 65.6581 48.0317 65.9519 48.1786C67.7145 48.4724 69.3303 48.1786 70.3585 46.7097C72.1211 46.5629 73.4431 47.1504 74.7651 48.0317C75.0589 45.2408 75.2058 42.5969 71.8274 41.5687C71.3867 39.953 70.0648 39.3655 68.449 39.5123C66.2457 36.1339 58.4607 39.6592 55.3761 37.4559C54.3479 36.7216 54.0541 35.3995 53.9072 34.2245C52.879 35.2527 51.9977 35.9871 51.557 37.4559C50.8226 39.5123 51.2632 42.0094 52.5852 43.772C53.4665 44.947 54.7884 45.8284 56.1105 46.1222C55.9636 46.269 55.8166 46.416 55.8166 46.5629C54.0541 49.3538 54.3478 53.4666 54.3478 56.698C54.7884 56.5511 55.376 56.5511 55.8166 56.4042C55.376 54.9353 55.8166 53.1727 58.0199 53.0258C57.7261 52.4382 57.2855 51.2632 58.4606 49.3536C57.7262 49.6475 56.9917 50.3818 56.698 51.5569C56.1105 50.6755 56.1105 49.7943 56.4042 49.0598C56.551 48.6191 56.698 48.3254 56.8448 48.0316V47.8848C58.3137 44.947 63.6015 46.8566 65.0704 42.3031C64.6297 42.8906 64.0422 43.3313 63.4547 43.6251C62.5733 44.0658 61.839 42.3031 60.6638 42.3031C61.1045 42.5969 61.2513 43.1844 61.2513 43.772C61.1045 44.3595 60.8107 44.5063 60.37 44.0658C59.9293 43.6252 59.6356 42.7438 58.7543 42.5969C59.1949 43.0376 59.1949 43.6251 59.0481 44.0658C58.9012 44.6533 58.4606 44.9471 58.0199 44.3596C57.7261 44.0658 57.5792 43.4783 57.1385 43.1846C57.2854 43.9189 56.551 44.6534 55.6697 44.2128C54.3476 43.6252 53.4664 42.7439 52.8788 41.4219C52.4381 40.0999 52.4381 38.631 53.0256 37.4559C53.0256 37.4559 53.0256 37.4559 53.0256 37.3091C55.8165 42.4501 65.8047 37.4559 67.1267 40.6875L67.2735 41.275H67.8611C68.8893 41.1282 70.0643 41.1282 70.2113 42.4501V43.0376L70.652 43.1844C72.5615 43.3313 73.2959 44.3595 73.2959 45.8284L73.2961 45.8285ZM57.2855 56.2573C57.5793 55.6698 58.0199 55.376 58.3137 55.0823C58.1669 55.523 58.0199 55.8166 57.873 56.2573C57.7262 56.2573 57.5792 56.2573 57.2855 56.2573ZM63.4547 56.1105C63.3078 55.6698 62.8672 55.0823 62.4265 54.4947C63.1609 54.6416 63.8954 55.0823 64.4829 56.1105C64.1891 56.1105 63.7485 56.1105 63.4547 56.1105ZM58.9012 56.1105C58.9012 55.8167 59.0481 55.523 59.0481 55.2291C59.0481 55.523 59.0481 55.8167 59.1949 55.9635L58.9011 56.1104L58.9012 56.1105ZM61.9858 56.1105C61.9858 55.8167 61.839 55.3761 61.839 54.9354C62.1328 55.3761 62.2796 55.6698 62.4265 56.1105H61.9858ZM24.6769 39.3655C24.383 48.9131 28.349 56.9918 36.7215 64.7767C38.4841 66.6863 38.6311 68.7427 39.2186 70.6522C39.5124 70.5054 39.8061 70.3584 40.1 70.0647C39.9531 69.1833 39.9531 68.449 39.8061 67.8615C40.2468 68.1553 40.5405 68.7428 40.8343 69.624C41.1282 69.4772 41.275 69.1833 41.5687 69.0365C41.5687 68.7427 41.4219 68.449 41.4219 68.1552C41.4219 67.8613 41.275 67.4208 41.128 67.127C40.5405 65.6581 37.8966 63.6017 36.7214 62.5735C29.6709 56.4043 25.2643 48.4724 24.6767 39.3655H24.6769ZM25.1175 53.7603C14.9824 44.8002 17.4795 28.9365 25.2644 22.4735C24.383 26.1456 24.2362 29.8179 24.6769 33.6368C25.1175 29.524 26.1457 25.5581 27.7615 21.739C29.671 17.3324 32.4618 12.9259 35.987 9.10681C28.349 13.9541 20.5641 21.2983 17.6263 29.6709C15.1293 37.1621 16.3043 48.3254 25.1175 53.7603ZM13.9542 37.4559C9.69457 51.4102 11.0165 68.4489 24.3832 64.7767C16.1576 65.0706 13.2198 59.9294 13.9542 48.6193C16.0106 53.6134 20.4172 56.2573 24.53 57.5793C18.067 53.0259 14.248 48.0317 13.9542 37.4559ZM13.8072 66.6863C15.8636 77.1152 22.6203 77.5558 26.5863 73.7368C21.886 76.2339 18.6544 74.0306 17.1855 70.5054C21.0046 70.7992 22.914 69.771 24.8236 68.1552C21.4452 69.1834 17.92 69.3302 13.8072 66.6863ZM20.2702 80.4935C25.1175 87.9847 30.1116 84.3126 31.4336 81.6686C29.2303 83.5781 25.9988 83.8718 24.383 81.8154C26.4394 80.9341 27.9083 79.3184 28.6427 77.7026C26.1456 79.6122 23.3548 80.4935 20.2701 80.4935H20.2702ZM33.1963 83.5781C31.8743 86.222 29.8179 87.9847 27.1739 88.7191C29.671 91.51 33.6369 91.9506 35.2527 89.7473C35.2527 89.3066 35.1058 89.0129 35.1058 88.5723C34.0776 89.7473 32.4619 90.188 30.8462 89.0129C32.1682 87.3972 32.9026 85.6345 33.1964 83.5781H33.1963ZM36.5746 94.8883C36.4277 94.3008 36.2807 93.7133 36.1339 93.2726C35.5464 94.007 34.9588 94.3008 34.0775 94.4476C35.2525 95.182 36.1339 95.329 36.5746 94.8883ZM25.8519 56.8448C24.0893 66.2456 28.7897 65.2174 31.5804 64.9236C28.9365 64.4829 26.7331 63.4547 26.8801 60.6639C28.2021 61.5453 30.1116 61.839 31.5804 61.839C28.202 60.3701 26.5863 57.7262 25.8519 56.8448ZM25.9988 66.2456C25.8519 74.6182 30.9929 72.5616 32.7555 70.7991C30.2584 71.6804 28.202 71.2397 28.0552 68.8895C30.1116 69.0364 31.4336 68.1552 32.3148 67.2738C28.4957 68.302 26.88 66.98 25.9988 66.2456ZM27.9083 74.618C30.2585 80.4935 32.9025 78.8777 34.3713 76.8213C34.3713 76.5275 34.3713 76.3806 34.3713 76.0869C32.7556 77.4089 31.2867 77.5558 30.6992 76.2338C32.6088 75.3524 33.3431 73.8835 33.6369 72.7085C30.993 75.2056 28.9366 74.7649 27.9084 74.618H27.9083ZM31.5804 80.4935C32.7555 82.2561 33.7837 83.1375 34.5182 83.5781C34.3713 82.4031 34.3713 81.0811 34.3713 79.906C33.1963 80.6404 32.1681 80.4935 31.5804 80.4935ZM32.7556 64.7767C32.9025 70.9459 35.8402 69.7709 37.4559 69.0364C35.8402 69.1832 34.2245 68.8895 34.2245 66.98C35.2527 67.2738 36.134 67.1268 37.0154 66.98C34.6651 66.6862 33.1962 65.2174 32.7556 64.7767ZM33.7838 70.7991C34.0776 71.8273 34.3713 72.5616 34.6651 73.1493V72.7086L35.3995 72.4148C35.3995 72.2679 35.3995 72.2679 35.2527 72.121C36.5747 71.8271 37.1622 71.0928 37.6029 70.3584C35.5465 71.6804 34.3714 71.0928 33.7838 70.7991ZM22.3266 29.9647C19.8296 34.665 19.3889 44.0658 24.9706 50.6757C23.6485 48.9131 21.7391 42.7438 22.4735 37.7496C21.7391 35.5464 21.5921 32.7555 22.3266 29.9647ZM16.1575 56.1105C17.0388 60.2233 19.2421 62.7203 23.208 62.8672C21.5923 62.1328 20.2702 61.3983 19.5359 60.2233C20.5641 60.3701 21.7391 60.3701 22.9143 59.9294C20.1234 59.4888 17.9202 58.0199 16.1576 56.1104L16.1575 56.1105ZM21.5923 72.2679C22.6205 73.1493 23.9425 73.2961 25.2644 72.7086C24.8237 72.7086 24.383 72.5618 24.0893 72.2679C24.3832 71.9741 24.53 71.5336 24.53 71.2397C23.7956 71.9741 22.6205 72.2679 21.5923 72.2679ZM27.1739 81.5217C28.2021 81.6686 29.3772 81.8156 30.2585 80.7874C29.8179 80.9342 29.5242 80.9342 29.2303 80.7874C29.3772 80.3467 29.3772 79.906 29.2303 79.4653C28.9365 80.3467 28.2021 81.0811 27.1739 81.5217ZM32.9024 87.9847C33.6368 87.8379 34.3713 87.5441 34.812 86.9565C34.812 86.8097 34.812 86.6627 34.812 86.369C34.6651 86.369 34.5182 86.5159 34.3713 86.369C34.3713 86.0752 34.0775 85.4877 33.7838 85.194C33.9306 86.2222 33.49 87.2502 32.9024 87.9847ZM100.323 39.3655C100.617 48.9131 96.651 56.9918 88.2784 64.7767C86.5159 66.6863 86.3689 68.7427 85.7814 70.6522C85.4875 70.5054 85.1938 70.3584 84.9 70.0647C85.0469 69.1833 85.0469 68.449 85.1938 67.8615C84.7532 68.1553 84.4595 68.7428 84.1656 69.624C83.8718 69.4772 83.725 69.1833 83.4313 69.0365C83.4313 68.7427 83.5781 68.449 83.5781 68.1552C83.5781 67.8613 83.725 67.4208 83.8719 67.127C84.4595 65.6581 87.1034 63.6017 88.2785 62.5735C95.3291 56.4043 99.5887 48.4724 100.323 39.3655H100.323ZM99.7356 53.7603C109.871 44.6533 107.374 28.9365 99.5887 22.3267C100.47 25.9988 100.617 29.671 100.176 33.49C99.7356 29.3772 98.7074 25.4113 97.0917 21.5922C95.1821 17.1855 92.3913 12.7791 88.8661 8.95996C96.5041 13.8073 104.289 21.1515 107.227 29.524C109.871 37.1621 108.696 48.3254 99.7356 53.7603ZM110.899 37.4559C115.159 51.4102 113.837 68.4489 100.47 64.7767C108.696 65.0706 111.633 59.9294 110.899 48.6193C108.843 53.6134 104.436 56.2573 100.323 57.5793C106.786 53.0259 110.605 48.0317 110.899 37.4559ZM111.046 66.6863C108.989 77.1152 102.233 77.5558 98.2667 73.7368C102.967 76.2339 106.199 74.0306 107.667 70.5054C103.848 70.7992 101.939 69.771 100.029 68.1552C103.555 69.1834 107.08 69.3302 111.046 66.6863ZM104.583 80.4935C99.7356 87.9847 94.7416 84.3126 93.4195 81.6686C95.6228 83.5781 98.8544 83.8718 100.47 81.8154C98.4137 80.9341 96.9448 79.3184 96.2104 77.7026C98.8544 79.6122 101.645 80.4935 104.583 80.4935H104.583ZM91.8037 83.5781C93.1257 86.222 95.1821 87.9847 97.826 88.7191C95.329 91.51 91.363 91.9506 89.7473 89.7473C89.7473 89.3066 89.8942 89.0129 89.8942 88.5723C90.9224 89.7473 92.5381 90.188 94.1538 89.0129C92.8318 87.3972 92.0974 85.6345 91.8036 83.5781H91.8037ZM88.4254 94.8883C88.5722 94.3008 88.7192 93.7133 88.8661 93.2726C89.4536 94.007 90.0411 94.3008 90.9225 94.4476C89.6004 95.182 88.8661 95.329 88.4254 94.8883ZM99.0012 56.8448C100.764 66.2456 96.0635 65.2174 93.2727 64.9236C95.9166 64.4829 98.12 63.4547 97.973 60.6639C96.798 61.5453 94.7416 61.6921 93.4195 61.6921C96.798 60.3701 98.2668 57.7262 99.0012 56.8448ZM98.8542 66.2456C99.0011 74.6182 93.8601 72.5616 92.0975 70.7991C94.5946 71.6804 96.651 71.2397 96.7978 68.8895C94.7414 69.0364 93.4194 68.1552 92.5382 67.2738C96.3573 68.302 98.1199 66.98 98.8542 66.2456ZM96.9448 74.618C94.5946 80.4935 91.9507 78.8777 90.4818 76.8213C90.4818 76.5275 90.4818 76.3806 90.4818 76.0869C92.0975 77.4089 93.5664 77.5558 94.1539 76.2338C92.2444 75.3524 91.51 73.8835 91.2162 72.7085C93.8601 75.2056 95.9166 74.7649 96.9448 74.618ZM93.4195 80.4935C92.2445 82.2561 91.2163 83.1375 90.4818 83.5781C90.6286 82.4031 90.6286 81.0811 90.6286 79.906C91.6568 80.6404 92.685 80.4935 93.4195 80.4935ZM92.2444 64.7767C92.0975 70.9459 89.1598 69.7709 87.5441 69.0364C89.1598 69.1832 90.7755 68.8895 90.7755 66.98C89.7473 67.2738 88.866 67.1268 87.9846 66.98C90.3348 66.6862 91.6567 65.2174 92.2442 64.7767H92.2444ZM91.2162 70.7991C90.9223 71.8273 90.6286 72.5616 90.3348 73.1493V72.7086L89.4535 72.4148C89.4535 72.2679 89.4535 72.2679 89.6003 72.121C88.2783 71.8271 87.6908 71.0928 87.2501 70.3584C89.3065 71.6804 90.6286 71.0928 91.2162 70.7991ZM102.526 29.9647C105.024 34.665 105.464 44.0658 99.8826 50.6757C101.205 48.9131 103.114 42.7438 102.38 37.7496C103.114 35.5464 103.408 32.7555 102.526 29.9647ZM108.696 56.1105C107.814 60.2233 105.611 62.7203 101.645 62.8672C103.261 62.1328 104.583 61.3983 105.317 60.2233C104.289 60.3701 103.114 60.3701 101.939 59.9294C104.877 59.4888 107.08 58.0199 108.696 56.1104L108.696 56.1105ZM103.408 72.2679C102.38 73.1493 101.057 73.2961 99.7356 72.7086C100.176 72.7086 100.617 72.5618 100.911 72.2679C100.617 71.9741 100.47 71.5336 100.47 71.2397C101.204 71.9741 102.233 72.2679 103.408 72.2679ZM97.826 81.5217C96.7978 81.6686 95.6228 81.8156 94.7414 80.7874C95.1821 80.9342 95.4758 80.9342 95.7696 80.7874C95.6228 80.3467 95.6228 79.906 95.7696 79.4653C95.9165 80.3467 96.7978 81.0811 97.826 81.5217ZM92.0975 87.9847C91.3631 87.8379 90.6286 87.5441 90.188 86.9565C90.188 86.8097 90.188 86.6627 90.188 86.369C90.3348 86.369 90.4818 86.5159 90.6286 86.369C90.6286 86.0752 90.9225 85.4877 91.2162 85.194C91.0693 86.2222 91.363 87.2502 92.0975 87.9847ZM62.5735 40.3937C64.6299 41.4219 66.0987 40.5405 67.2738 41.1281C68.1551 41.5687 68.5958 43.3313 67.4206 43.6251C67.4206 42.7438 66.6863 42.8907 66.2456 42.8907C65.8049 42.8907 65.3642 42.4501 65.3642 42.0094C65.3642 41.8625 65.3642 41.7156 65.5111 41.5687C64.4829 41.5687 63.308 41.4219 62.5735 40.3937ZM54.2009 39.953C54.0541 41.4219 54.6416 42.5969 55.9635 43.3314C55.6697 42.7439 55.5228 42.1564 55.376 41.4219C57.5792 41.7157 59.9294 41.275 61.839 40.3937C58.9012 41.1281 56.4042 40.8344 54.2009 39.953ZM79.4653 92.9789C80.6404 93.5664 81.8155 93.5664 82.9906 93.2727C84.1656 92.979 85.1938 92.3914 85.9283 91.3632C86.9565 90.1881 87.2504 88.7192 87.1034 87.3972C86.9565 86.369 86.5159 85.194 85.7814 84.3126C86.0752 83.7251 86.222 83.1376 86.3689 82.4031C86.5157 81.228 86.5157 80.0529 86.0751 79.0247C85.6344 77.9965 85.0469 77.1151 84.1655 76.2338C83.2842 75.4994 82.1091 75.0587 81.0809 74.7649C79.9059 74.618 78.7307 74.7649 77.7025 75.0587C76.9681 75.3525 76.2336 75.7931 75.6461 76.2338C74.6179 75.6462 73.5897 75.4994 72.5615 75.6462C71.2395 75.7931 69.7706 76.3806 68.8894 77.5558C68.155 78.4371 67.7143 79.6122 67.5674 80.7872C67.5674 81.9623 67.8612 83.1374 68.5956 84.1656C68.8894 84.7532 69.6238 84.7532 70.2113 84.4595C70.7988 84.1658 70.7988 83.4313 70.5051 82.8438C70.0644 82.2562 69.9176 81.5217 69.9176 80.9342C69.9176 80.1998 70.2114 79.6122 70.652 79.0247C71.2395 78.2903 71.974 77.9965 72.8552 77.8496C73.2959 77.8496 73.8834 77.8496 74.3241 77.9965C74.0303 78.584 73.7366 79.3185 73.5897 79.906C73.4429 80.4935 73.8835 81.0811 74.4711 81.228C75.0586 81.3749 75.6461 80.9342 75.7931 80.3467C75.9399 79.6123 76.2337 78.8778 76.6744 78.4371C77.1151 77.8496 77.8495 77.4089 78.437 77.1151C79.1714 76.8213 79.9059 76.8213 80.6402 76.9683C81.3746 77.1152 81.9623 77.4089 82.5498 77.8496C83.1373 78.2903 83.578 79.0247 83.8718 79.6122C84.1656 80.3466 84.1656 81.0811 84.0187 81.8154C83.8717 82.5498 83.578 83.2843 83.1373 83.8718C82.6966 84.4594 82.1091 84.9 81.3747 85.0469C80.7872 85.1937 80.4934 85.9282 80.6404 86.5157C80.7873 87.1033 81.5217 87.3971 82.1092 87.2501C82.9906 86.9563 83.5781 86.5157 84.1656 85.9281C84.4595 86.3688 84.6063 86.8094 84.6063 87.2501C84.7532 88.1315 84.4595 88.8658 83.8719 89.6003C83.4313 90.1879 82.8437 90.4817 82.1094 90.6285C81.375 90.7754 80.7873 90.7754 80.053 90.4817C79.4654 90.1879 78.7309 90.4817 78.5841 91.0692C78.5841 92.0974 78.8779 92.8318 79.4654 92.9788L79.4653 92.9789ZM78.2903 95.329C78.2903 95.7697 78.2903 96.0634 78.2903 96.504V96.9447L74.9118 98.4136L74.765 98.8543C74.6181 99.2949 74.4712 99.7356 74.3243 100.176C74.1775 100.617 73.8837 101.058 73.7368 101.498L73.443 101.939L74.765 105.317C74.4712 105.758 74.0306 106.199 73.7368 106.492C73.2961 106.933 73.0024 107.227 72.5618 107.521L69.1833 106.199L68.7427 106.492C68.302 106.639 67.8613 106.933 67.4206 107.08C66.98 107.227 66.5393 107.374 66.0986 107.521L65.5111 107.667L64.0422 111.046H63.6015C63.3077 111.046 62.8672 111.046 62.4265 111.046C61.9858 111.046 61.6921 111.046 61.2514 111.046H60.8108L59.3419 107.667L58.7544 107.521C58.3137 107.374 57.873 107.227 57.4324 107.08C56.9917 106.933 56.551 106.639 56.1103 106.492L55.6697 106.199L52.2912 107.521C51.8506 107.227 51.4099 106.786 51.1162 106.492C50.6755 106.052 50.3818 105.758 50.088 105.317L51.41 101.939L51.2632 101.645C51.1163 101.204 50.8225 100.764 50.6756 100.323C50.5288 99.8824 50.3818 99.4418 50.235 99.0011L50.0881 98.4136L46.7097 96.9447V96.504C46.7097 96.2102 46.7097 95.7697 46.7097 95.329C46.7097 94.7415 46.1222 94.1539 45.5347 94.1539C44.9471 94.1539 44.3596 94.7415 44.3596 95.329C44.3596 95.7697 44.3596 96.2103 44.3596 96.651C44.3596 97.0917 44.5065 97.5323 44.5065 97.973L44.6533 98.5605L48.1786 100.176C48.3254 100.47 48.4724 100.911 48.6192 101.204C48.7661 101.498 48.9131 101.939 49.0599 102.233L47.591 105.758L48.0317 106.345C48.6192 107.08 49.0599 107.667 49.7943 108.255C50.3818 108.843 51.1163 109.43 51.7038 110.018L52.1445 110.458L55.8166 108.989C56.1105 109.136 56.551 109.283 56.8448 109.43C57.1387 109.577 57.5792 109.724 57.873 109.871L59.3419 113.396L59.9294 113.543C60.3701 113.543 60.8108 113.69 61.2514 113.69C61.6921 113.69 62.1328 113.69 62.5735 113.69C63.0141 113.69 63.4548 113.69 63.8955 113.69C64.3362 113.69 64.7768 113.543 65.2175 113.543L65.805 113.396L67.4208 109.871C67.7146 109.724 68.1551 109.577 68.449 109.43C68.7428 109.283 69.1833 109.136 69.4772 108.989L73.0024 110.458L73.59 110.018C74.3243 109.43 74.912 108.989 75.4995 108.255C76.087 107.667 76.6745 106.933 77.2621 106.345L77.7027 105.905L76.2339 102.233C76.3807 101.939 76.5277 101.498 76.6745 101.204C76.8214 100.911 76.9684 100.47 77.1152 100.176L80.6405 98.7074L80.7873 98.1199C80.7873 97.6792 80.9342 97.2385 80.9342 96.7979C80.9342 96.3572 80.9342 95.9165 80.9342 95.4758C80.9342 94.8883 80.3467 94.3008 79.7591 94.3008C78.8778 94.3008 78.2903 94.7415 78.2903 95.329ZM46.5628 83.4313C48.4724 76.9683 43.772 77.4089 42.3032 74.4712C43.6252 77.5558 40.2468 80.7872 46.5628 83.4313ZM75.7932 85.047C75.3525 85.6345 74.9118 86.222 74.6181 86.6627C74.4713 86.9565 74.1775 87.2502 74.0306 87.3971C73.5899 87.1033 73.2963 86.9564 72.8556 86.6627C72.1212 86.3689 71.2399 86.0752 70.3585 85.9283C69.771 85.7815 69.1835 86.2222 69.0365 86.8097C68.8895 87.3972 69.3303 87.9847 69.9178 88.1317C70.5054 88.2786 71.2398 88.4255 71.8274 88.7192C72.1212 88.8661 72.2681 89.0131 72.5618 89.1599C70.5054 91.5101 68.1551 93.7134 65.5112 95.6229C64.483 96.5043 63.308 97.2386 62.1328 97.9731C61.839 97.8263 61.5453 97.5325 61.2514 97.3856C60.6639 97.0918 60.0764 97.0918 59.6357 97.6794C59.3419 98.267 59.3419 98.8545 59.9295 99.2952C58.7545 100.03 57.4325 100.617 56.1105 101.205C55.5229 101.499 55.2291 102.086 55.5229 102.674C55.8168 103.261 56.4043 103.555 56.9918 103.261C58.7544 102.527 60.3702 101.645 61.9859 100.764C62.5735 101.058 63.161 101.498 63.7485 101.792C65.0705 102.527 66.3924 103.261 67.8613 103.849C68.4488 104.142 69.1833 103.849 69.3302 103.261C69.624 102.674 69.3302 101.939 68.7427 101.792C67.4206 101.205 66.0987 100.617 64.7767 99.8827C64.6299 99.7358 64.336 99.5889 64.1892 99.5889C65.0705 99.0013 65.9518 98.4138 66.8331 97.8263C69.477 95.7699 71.9741 93.4197 74.1775 90.9226C74.3243 91.0695 74.4713 91.3633 74.765 91.5101C75.2057 92.0977 75.4994 92.6852 75.6463 93.2727C75.7933 93.8602 76.5277 94.1541 77.1152 94.0071C77.7027 93.8602 77.9966 93.1257 77.8496 92.5382C77.5558 91.8038 77.1152 90.9225 76.6745 90.335C76.3807 89.8943 76.087 89.6006 75.7932 89.1599C76.087 88.8661 76.2339 88.5724 76.5276 88.2786C76.9682 87.691 77.4089 87.1035 77.8496 86.516C78.1434 85.9285 78.1434 85.3409 77.5558 84.9003C76.9681 84.4596 76.2338 84.4595 75.7932 85.047ZM59.7826 90.335C62.5735 94.5946 59.1951 95.0353 58.9012 97.3855C56.9917 93.2727 59.4888 92.6852 59.7826 90.335ZM49.9413 96.5042C54.3479 100.617 55.5229 96.798 58.3138 96.9448C54.0542 93.8602 52.7322 96.651 49.9413 96.5042ZM46.1222 92.0975C50.0881 97.3854 51.9977 93.5664 54.9353 94.3008C50.9693 90.0411 49.0598 92.8319 46.1222 92.0975ZM54.3478 84.7532C54.2009 87.3971 51.41 88.2784 53.9071 92.8319C54.0539 90.188 57.873 89.4535 54.3478 84.7532ZM52.2914 80.9342C51.9975 83.7251 48.9129 84.4595 51.2632 89.4536C51.7038 86.6627 55.6698 86.2222 52.2914 80.9342ZM43.1844 87.8379C46.5629 93.5664 48.9129 89.8943 51.8507 90.9225C48.1786 86.369 45.9752 88.8661 43.1844 87.8379ZM40.6874 83.1375C43.1844 89.3066 46.1222 86.0752 48.7661 87.3971C45.9752 82.403 43.3313 84.6062 40.6874 83.1375ZM49.2068 77.4089C49.0599 80.4935 45.9753 81.5217 48.9129 86.5159C48.9129 83.4313 53.1726 82.6968 49.2068 77.4089ZM57.4324 87.2502C57.1385 89.8942 54.2009 90.6287 56.551 95.329C56.8448 92.5381 60.517 92.2444 57.4324 87.2502ZM57.873 79.6122V85.3407L64.336 91.8037C64.7767 92.2444 65.5111 92.2444 65.9518 91.8037C66.3924 91.363 66.3924 90.6287 65.9518 90.188L60.2233 84.4595V73.8837L63.8954 70.2115V66.8331C64.4829 66.3925 64.9236 65.8049 64.9236 65.0706C64.9236 63.8955 63.8954 62.8673 62.7203 62.8673C61.5453 62.8673 60.5171 63.8955 60.5171 65.0706C60.5171 65.8049 60.9577 66.5394 61.5453 66.8331V69.3302L57.8732 73.0023V76.3807L55.2292 73.7368V66.8331C55.8168 66.3925 56.2574 65.8049 56.2574 65.0706C56.2574 63.8955 55.2292 62.8673 54.0542 62.8673C52.8791 62.8673 51.8509 63.8955 51.8509 65.0706C51.8509 65.8049 52.2916 66.5394 52.8791 66.8331V74.765L57.8733 79.6123L57.873 79.6122ZM67.5676 64.3361C67.1269 64.3361 66.8332 64.6299 66.8332 65.0704C66.8332 65.511 67.1271 65.8048 67.5676 65.8048C68.0083 65.8048 68.302 65.511 68.302 65.0704C68.302 64.6299 67.8613 64.3361 67.5676 64.3361ZM62.5735 64.3361C62.1328 64.3361 61.8391 64.6299 61.8391 65.0704C61.8391 65.511 62.1329 65.8048 62.5735 65.8048C63.0141 65.8048 63.3078 65.511 63.3078 65.0704C63.3078 64.6299 63.014 64.3361 62.5735 64.3361ZM54.0541 64.3361C53.6134 64.3361 53.3197 64.6299 53.3197 65.0704C53.3197 65.511 53.6135 65.8048 54.0541 65.8048C54.4947 65.8048 54.7884 65.511 54.7884 65.0704C54.7884 64.6299 54.4946 64.3361 54.0541 64.3361Z" fill="white"/>
<path d="M62.4265 125C83.5781 114.865 95.4758 98.2667 92.2444 70.9459C84.7532 69.0364 80.3465 64.6299 79.759 57.1387C74.618 54.9354 68.7425 53.7603 62.4265 53.7603C56.1105 53.7603 50.235 54.7885 45.094 57.1387C44.3596 64.483 39.953 69.0365 32.6086 70.9459C29.3772 98.2667 41.2749 114.865 62.4265 125ZM48.4724 59.6357C52.879 58.02 57.7262 57.2855 62.5735 57.2855C67.2738 57.2855 72.1211 58.0199 76.6745 59.6357C77.9966 66.6863 82.55 71.2397 89.1599 73.59C91.0694 95.7698 82.4032 111.046 62.7205 121.034C43.0377 111.046 34.2246 95.7698 36.281 73.59C42.597 71.2397 47.1505 66.6863 48.4725 59.6357H48.4724Z" fill="white"/>
</g>
<defs>
<clipPath id="clip0_1_3">
<rect width="125" height="125" fill="white"/>
</clipPath>
</defs>
</svg>
